<svg width="24" height="24" viewBox="0 0 24 24" fill="none" xmlns="http://www.w3.org/2000/svg">
<path d="M12 3.8C14.6667 3.8 14.9867 3.81 16.0407 3.858C16.675 3.86549 17.3032 3.98208 17.898 4.20267C18.3322 4.36295 18.7249 4.61856 19.0473 4.95067C19.3794 5.27305 19.635 5.66579 19.7953 6.1C20.0159 6.69475 20.1325 7.32303 20.14 7.95733C20.188 9.01333 20.2 9.33333 20.2 12C20.2 14.6667 20.19 14.9867 20.142 16.0407C20.1345 16.675 20.0179 17.3032 19.7973 17.898C19.6309 18.3291 19.3761 18.7206 19.0493 19.0473C18.7226 19.3741 18.3311 19.6289 17.9 19.7953C17.3052 20.0159 16.677 20.1325 16.0427 20.14C14.9887 20.188 14.672 20.198 12.002 20.198C9.332 20.198 9.01533 20.188 7.96133 20.14C7.32703 20.1325 6.69875 20.0159 6.104 19.7953C5.66979 19.635 5.27705 19.3794 4.95467 19.0473C4.62256 18.7249 4.36695 18.3322 4.20667 17.898C3.98608 17.3032 3.86949 16.675 3.862 16.0407C3.812 14.9867 3.8 14.67 3.8 12C3.8 9.33 3.81 9.01333 3.858 7.95933C3.86549 7.32503 3.98208 6.69675 4.20267 6.102C4.36354 5.66761 4.61983 5.27485 4.95267 4.95267C5.27505 4.62056 5.66779 4.36495 6.102 4.20467C6.69675 3.98408 7.32503 3.86749 7.95933 3.86C9.01333 3.812 9.33333 3.8 12 3.8ZM12 2C9.284 2 8.94333 2.01133 7.87733 2.06C7.04748 2.07758 6.22658 2.23536 5.44933 2.52667C4.78251 2.77763 4.1783 3.17073 3.67867 3.67867C3.17001 4.1781 2.77622 4.78233 2.52467 5.44933C2.23336 6.22658 2.07558 7.04748 2.058 7.87733C2.01133 8.94333 2 9.284 2 12C2 14.716 2.01133 15.0567 2.06 16.1227C2.07758 16.9525 2.23536 17.7734 2.52667 18.5507C2.77822 19.2177 3.17201 19.8219 3.68067 20.3213C4.1801 20.83 4.78433 21.2238 5.45133 21.4753C6.22858 21.7666 7.04948 21.9244 7.87933 21.942C8.946 21.9907 9.286 22.002 12.002 22.002C14.718 22.002 15.0587 21.9907 16.1247 21.942C16.9545 21.9244 17.7754 21.7666 18.5527 21.4753C19.2167 21.2179 19.8198 20.8249 20.3233 20.3213C20.8269 19.8178 21.2199 19.2147 21.4773 18.5507C21.7686 17.7734 21.9264 16.9525 21.944 16.1227C21.9927 15.056 22.004 14.716 22.004 12C22.004 9.284 21.9927 8.94333 21.944 7.87733C21.9264 7.04748 21.7686 6.22658 21.4773 5.44933C21.2258 4.78233 20.832 4.1781 20.3233 3.67867C19.8239 3.17001 19.2197 2.77622 18.5527 2.52467C17.7754 2.23336 16.9545 2.07558 16.1247 2.058C15.0567 2.01133 14.716 2 12 2Z" fill="#222222"/>
<path d="M12.0005 6.86719C10.9852 6.86719 9.99277 7.16825 9.1486 7.73231C8.30442 8.29637 7.64647 9.09808 7.25794 10.0361C6.86941 10.9741 6.76775 12.0062 6.96583 13.002C7.1639 13.9978 7.6528 14.9124 8.37071 15.6303C9.08862 16.3482 10.0033 16.8371 10.9991 17.0352C11.9948 17.2333 13.027 17.1316 13.965 16.7431C14.903 16.3546 15.7047 15.6966 16.2687 14.8524C16.8328 14.0083 17.1339 13.0158 17.1339 12.0005C17.1339 10.6391 16.593 9.33339 15.6303 8.37071C14.6677 7.40802 13.362 6.86719 12.0005 6.86719ZM12.0005 15.3339C11.3413 15.3339 10.6968 15.1384 10.1486 14.7721C9.60046 14.4058 9.17322 13.8852 8.92092 13.2761C8.66863 12.667 8.60262 11.9968 8.73124 11.3502C8.85986 10.7036 9.17733 10.1097 9.6435 9.6435C10.1097 9.17732 10.7036 8.85985 11.3502 8.73124C11.9968 8.60262 12.667 8.66863 13.2761 8.92092C13.8852 9.17321 14.4058 9.60046 14.7721 10.1486C15.1384 10.6968 15.3339 11.3412 15.3339 12.0005C15.3339 12.8846 14.9827 13.7324 14.3575 14.3575C13.7324 14.9827 12.8846 15.3339 12.0005 15.3339Z" fill="#222222"/>
<path d="M17.3367 7.86289C17.9995 7.86289 18.5367 7.32563 18.5367 6.66289C18.5367 6.00015 17.9995 5.46289 17.3367 5.46289C16.674 5.46289 16.1367 6.00015 16.1367 6.66289C16.1367 7.32563 16.674 7.86289 17.3367 7.86289Z" fill="#222222"/>
</svg>
