<svg width="142" height="24" fill="none" xmlns="http://www.w3.org/2000/svg"><g clip-path="url(#a)" fill="#222"><path d="M0 24V0h2.901v24H0ZM15.064 20.198h-3.386v-6.38L6.084 3.803h3.798l1.566 3.085a54.218 54.218 0 0 1 1.91 4.168h.046a56.521 56.521 0 0 1 1.91-4.168l1.568-3.085h3.776l-5.594 10.015v6.38ZM23.893 24V0h2.9v24h-2.9ZM45.424 8.914h-3.64c-.298-1.61-1.38-2.486-3.198-2.486-2.625 0-4.284 2.12-4.284 5.642 0 3.592 1.613 5.78 4.212 5.78 2.352 0 3.64-1.358 3.686-3.891h-3.892v-2.764h7.045v9.003H42.5v-1.772h-.049c-.919 1.289-2.601 2.095-4.788 2.095-4.19 0-6.862-3.201-6.862-8.45 0-5.367 2.995-8.634 7.784-8.634 4.027 0 6.493 2.116 6.838 5.478l.001-.001ZM53.32 16.19l-1.289 4.006h-3.543L54.175 3.8h4.558l5.688 16.395h-3.547L59.61 16.19h-6.288Zm5.023-3.983a134.278 134.278 0 0 1-1.866-6.402h-.046a132.917 132.917 0 0 1-1.84 6.402l-.345 1.082h4.443l-.346-1.082ZM78.751 17.297v2.9H67.63V3.804h3.386v13.494h7.736ZM93.163 17.297v2.9H82.041V3.804h3.386v13.494h7.736ZM99.837 6.704v3.709h7.413v2.877h-7.413v4.007h8.15v2.9H96.451V3.804h11.329v2.9h-7.943ZM118.255 3.803c4.122 0 5.986 1.703 5.986 4.629 0 2.002-1.151 3.498-2.992 4.005v.046c1.151.414 1.702 1.106 2.464 3.178l1.634 4.535h-3.684l-1.313-3.89c-.599-1.752-1.265-2.372-2.878-2.372h-1.865v6.262h-3.384V3.803h6.032Zm-2.648 7.438h2.395c2.049 0 2.831-.92 2.831-2.42 0-1.588-1.08-2.279-3.015-2.279h-2.21l-.001 4.699ZM135.408 20.198h-3.386v-6.38l-5.594-10.015h3.798l1.565 3.085a54.105 54.105 0 0 1 1.91 4.168h.046a56.898 56.898 0 0 1 1.91-4.168l1.568-3.085h3.777l-5.594 10.015v6.38Z"/></g><defs><clipPath id="a"><path fill="#fff" d="M0 0h141.002v24H0z"/></clipPath></defs></svg>