<svg width="140" height="24" viewBox="0 0 140 24" fill="none" xmlns="http://www.w3.org/2000/svg">
<g clip-path="url(#clip0_514_4309)">
<path d="M38.1759 9.36498H37.4351V2.38672H39.6674C40.0641 2.38672 40.4082 2.41986 40.7006 2.48418C40.9931 2.54948 41.2348 2.65669 41.4269 2.8058C41.6189 2.95492 41.7603 3.15374 41.8509 3.40032C41.9416 3.6469 41.9874 3.94903 41.9874 4.30672C41.9874 4.89734 41.8665 5.34761 41.6267 5.65656C41.3859 5.96552 41.0126 6.16531 40.5057 6.25595L42.1336 9.36498H41.2855L39.7258 6.33392H38.1759V9.36498ZM38.1759 5.71017H39.6089C39.875 5.71017 40.1089 5.6936 40.3107 5.66144C40.5125 5.62927 40.6811 5.56397 40.8176 5.46554C40.9541 5.36808 41.0584 5.22968 41.1296 5.05035C41.2017 4.87102 41.2368 4.63809 41.2368 4.35057C41.2368 4.06988 41.2027 3.84377 41.1344 3.67127C41.0662 3.49876 40.9648 3.36329 40.8322 3.26485C40.6987 3.16641 40.5301 3.10014 40.3253 3.06408C40.1206 3.02802 39.8818 3.01047 39.6089 3.01047H38.1759V5.71017Z" fill="#222222"/>
<path d="M43.5181 9.36498V2.38672H47.7V3.01047H44.2589V5.53474H47.2418V6.15849H44.2589V8.74123H47.7V9.36498H43.5181Z" fill="#222222"/>
<path d="M49.9225 9.36498H49.1816V2.38672H51.3652C51.7619 2.38672 52.106 2.42083 52.3985 2.48905C52.6909 2.55728 52.9327 2.66936 53.1247 2.8253C53.3158 2.98124 53.4571 3.18591 53.5488 3.43931C53.6394 3.69271 53.6852 4.00751 53.6852 4.38469C53.6852 5.14489 53.499 5.6858 53.1247 6.00743C52.7504 6.32905 52.1645 6.48986 51.3652 6.48986H49.9225V9.36498ZM49.9225 5.86611H51.3067C51.5728 5.86611 51.8068 5.84759 52.0086 5.8125C52.2104 5.77644 52.379 5.70822 52.5155 5.60686C52.6519 5.5055 52.7562 5.36223 52.8274 5.17705C52.8986 4.99187 52.9346 4.74529 52.9346 4.43829C52.9346 4.14493 52.9005 3.90712 52.8323 3.72487C52.764 3.54262 52.6636 3.39935 52.5301 3.29506C52.3965 3.19078 52.2279 3.12061 52.0232 3.08455C51.8185 3.04848 51.5797 3.03094 51.3067 3.03094H49.9225V5.86611Z" fill="#222222"/>
<path d="M59.5245 6.93819C59.5245 7.38651 59.4689 7.77148 59.3587 8.09311C59.2476 8.41473 59.0858 8.67788 58.8713 8.88255C58.6569 9.08722 58.3966 9.23829 58.0915 9.33575C57.7864 9.43321 57.4384 9.48194 57.0485 9.48194C56.2949 9.48194 55.711 9.28896 55.2987 8.90204C54.8863 8.51609 54.6797 7.89721 54.6797 7.04539V2.38672H55.4205V6.96742C55.4205 7.63699 55.559 8.11552 55.8348 8.40499C56.1107 8.69347 56.5318 8.83869 57.0972 8.83869C57.6558 8.83869 58.0769 8.6925 58.3596 8.40011C58.6423 8.10773 58.7836 7.63017 58.7836 6.96742V2.38672H59.5245V6.93819Z" fill="#222222"/>
<path d="M65.8506 7.46156C65.8506 8.11845 65.6674 8.59991 65.2999 8.90594C64.9334 9.21197 64.3368 9.36498 63.5111 9.36498H61.2886V2.38672H63.5111C64.2978 2.38672 64.8632 2.53778 65.2073 2.83894C65.5524 3.14107 65.7239 3.5933 65.7239 4.19658C65.7239 4.9948 65.4383 5.51329 64.8661 5.75402V5.79301C65.2034 5.92361 65.4529 6.11756 65.6118 6.37388C65.7717 6.63118 65.8506 6.99276 65.8506 7.46156ZM64.9733 4.25701C64.9733 3.77652 64.8515 3.44808 64.6078 3.27265C64.3641 3.09722 64.0239 3.0095 63.5891 3.0095H62.0294V5.49478H63.5891C64.018 5.49478 64.3563 5.40609 64.6029 5.22676C64.8495 5.0484 64.9733 4.72483 64.9733 4.25701ZM65.1 7.41965C65.1 6.97035 64.9831 6.63995 64.7491 6.43138C64.5152 6.22282 64.1574 6.11853 63.6768 6.11853H62.0294V8.74025H63.6768C64.1574 8.74025 64.5152 8.635 64.7491 8.42253C64.9831 8.21104 65.1 7.87674 65.1 7.41965Z" fill="#222222"/>
<path d="M67.3521 9.36498V2.38672H68.0929V8.74123H71.3487V9.36498H67.3521Z" fill="#222222"/>
<path d="M72.5576 9.36498V2.38672H73.2985V9.36498H72.5576Z" fill="#222222"/>
<path d="M79.146 3.19542C78.9374 3.1116 78.7142 3.04435 78.4734 2.99562C78.2326 2.94689 77.9665 2.92253 77.6741 2.92253C77.329 2.92253 77.0268 2.96931 76.7675 3.06385C76.5082 3.15838 76.2938 3.31919 76.1241 3.54628C75.9545 3.77434 75.8278 4.0755 75.744 4.45268C75.6592 4.82985 75.6172 5.30449 75.6172 5.87562C75.6172 6.44674 75.6611 6.92236 75.7488 7.29856C75.8366 7.67574 75.9701 7.97592 76.1485 8.20008C76.3269 8.42424 76.555 8.58311 76.8309 8.67765C77.1077 8.77218 77.4372 8.81896 77.8203 8.81896C78.0669 8.81896 78.3077 8.79947 78.5416 8.76049C78.7756 8.7215 78.9959 8.65718 79.2035 8.56556L79.3498 9.16008C79.1226 9.25754 78.8623 9.33551 78.5699 9.39399C78.2775 9.45247 77.9558 9.48171 77.6049 9.48171C77.1301 9.48171 76.7188 9.41543 76.3717 9.28191C76.0237 9.14839 75.7371 8.93689 75.511 8.64841C75.2848 8.35894 75.1162 7.98859 75.0041 7.53734C74.892 7.08609 74.8364 6.53836 74.8364 5.89511C74.8364 5.25186 74.891 4.7012 74.9992 4.24313C75.1084 3.78506 75.2751 3.40983 75.5012 3.11745C75.7274 2.82506 76.012 2.61065 76.3571 2.4742C76.7022 2.33775 77.1106 2.26953 77.5854 2.26953C77.9168 2.26953 78.2307 2.29487 78.526 2.3475C78.8224 2.40013 79.07 2.4742 79.2718 2.57166L79.146 3.19542Z" fill="#222222"/>
<path d="M85.8701 9.48171C85.4149 9.48171 85.0191 9.42128 84.6819 9.3014C84.3426 9.18055 84.0629 8.98173 83.8426 8.70201C83.6213 8.4223 83.4565 8.05389 83.3454 7.59582C83.2352 7.13775 83.1797 6.57052 83.1797 5.89511C83.1797 5.2197 83.2352 4.64955 83.3454 4.18466C83.4556 3.71976 83.6213 3.34648 83.8426 3.06385C84.0638 2.78121 84.3436 2.57751 84.6819 2.45471C85.0191 2.33093 85.4149 2.26953 85.8701 2.26953C86.3195 2.26953 86.7104 2.33093 87.0448 2.45471C87.3801 2.57751 87.6579 2.77926 87.8782 3.05897C88.0995 3.33869 88.2643 3.70904 88.3754 4.17004C88.4855 4.63201 88.5411 5.19728 88.5411 5.86587C88.5411 6.5481 88.4875 7.12021 88.3812 7.5812C88.274 8.04317 88.1112 8.4145 87.8938 8.69714C87.6745 8.97978 87.3976 9.18152 87.0604 9.3014C86.7221 9.42128 86.3254 9.48171 85.8701 9.48171ZM85.8604 8.82871C86.224 8.82871 86.5291 8.77511 86.7728 8.6679C87.0165 8.56069 87.2105 8.38818 87.3577 8.15135C87.5039 7.91452 87.6082 7.60751 87.6696 7.23034C87.7301 6.85316 87.7622 6.39606 87.7622 5.85613C87.7622 5.31034 87.731 4.85129 87.6696 4.47704C87.6082 4.10376 87.5039 3.80163 87.3577 3.57065C87.2115 3.33966 87.0165 3.17398 86.7728 3.07359C86.5291 2.97321 86.225 2.92253 85.8604 2.92253C85.4958 2.92253 85.1926 2.97321 84.9489 3.07359C84.7052 3.17495 84.5103 3.33966 84.3631 3.57065C84.2178 3.80066 84.1135 4.10279 84.0521 4.47704C83.9907 4.85129 83.9595 5.31034 83.9595 5.85613C83.9595 6.39606 83.9897 6.85316 84.0521 7.23034C84.1145 7.60751 84.2178 7.91452 84.3631 8.15135C84.5093 8.38916 84.7052 8.56069 84.9489 8.6679C85.1926 8.77511 85.4968 8.82871 85.8604 8.82871Z" fill="#222222"/>
<path d="M90.8322 3.01047V5.62245H93.7283V6.24621H90.8322V9.36498H90.0913V2.38672H94.1855V3.01047H90.8322Z" fill="#222222"/>
<path d="M101.506 7.52272C101.506 7.87359 101.465 8.17377 101.384 8.42424C101.303 8.67375 101.17 8.87744 100.986 9.03338C100.799 9.18932 100.561 9.30238 100.268 9.3745C99.9766 9.44662 99.6227 9.48171 99.2055 9.48171C98.8361 9.48171 98.4969 9.45539 98.1927 9.40374C97.8866 9.35208 97.5874 9.27021 97.2959 9.16008L97.4519 8.52658C97.7238 8.62404 98.0182 8.70006 98.3331 8.75562C98.648 8.81117 98.9677 8.83846 99.2923 8.83846C99.5467 8.83846 99.7641 8.82091 99.9454 8.78485C100.129 8.74977 100.279 8.68447 100.4 8.58993C100.52 8.49539 100.609 8.36674 100.667 8.20496C100.726 8.04219 100.754 7.8385 100.754 7.59095C100.754 7.3892 100.734 7.21572 100.692 7.06953C100.65 6.92333 100.572 6.79663 100.458 6.68942C100.345 6.58222 100.192 6.4867 100 6.40191C99.8089 6.31809 99.5672 6.2333 99.2738 6.14851C98.9482 6.05787 98.6645 5.95846 98.4208 5.85125C98.1771 5.74405 97.9753 5.61247 97.8174 5.45653C97.6576 5.30059 97.5396 5.11639 97.4616 4.90587C97.3836 4.69536 97.3437 4.44293 97.3437 4.15054C97.3437 3.52679 97.5201 3.05702 97.871 2.74222C98.221 2.42742 98.7679 2.26953 99.5087 2.26953C99.8128 2.26953 100.118 2.29682 100.421 2.35237C100.723 2.40793 101.008 2.48687 101.274 2.59116L101.146 3.21491C100.88 3.12427 100.621 3.05215 100.367 3.00049C100.113 2.94787 99.8362 2.92253 99.537 2.92253C99.0174 2.92253 98.6489 3.01316 98.4306 3.19542C98.2132 3.37767 98.105 3.6798 98.105 4.10181C98.105 4.31623 98.1313 4.49458 98.1869 4.63785C98.2424 4.78112 98.3263 4.901 98.4364 4.99846C98.5466 5.09592 98.686 5.18072 98.8556 5.25186C99.0252 5.32398 99.2231 5.39221 99.4492 5.45653C99.8587 5.58616 100.198 5.71188 100.464 5.83176C100.73 5.95261 100.94 6.08906 101.093 6.2411C101.245 6.39411 101.353 6.57247 101.414 6.77714C101.475 6.98181 101.506 7.23034 101.506 7.52272Z" fill="#222222"/>
<path d="M102.88 9.36498V2.38672H103.621V8.74123H106.877V9.36498H102.88Z" fill="#222222"/>
<path d="M110.396 9.48171C109.941 9.48171 109.545 9.42128 109.207 9.3014C108.869 9.18055 108.589 8.98173 108.368 8.70201C108.147 8.4223 107.982 8.05389 107.871 7.59582C107.761 7.13775 107.706 6.57052 107.706 5.89511C107.706 5.2197 107.761 4.64955 107.871 4.18466C107.981 3.71976 108.147 3.34648 108.368 3.06385C108.59 2.78121 108.869 2.57751 109.207 2.45471C109.545 2.33093 109.941 2.26953 110.396 2.26953C110.844 2.26953 111.235 2.33093 111.571 2.45471C111.906 2.57751 112.184 2.77926 112.404 3.05897C112.625 3.33869 112.79 3.70904 112.901 4.17004C113.011 4.63201 113.067 5.19728 113.067 5.86587C113.067 6.5481 113.013 7.12021 112.906 7.5812C112.799 8.04317 112.637 8.4145 112.419 8.69714C112.2 8.97978 111.923 9.18152 111.586 9.3014C111.247 9.42128 110.851 9.48171 110.396 9.48171ZM110.386 8.82871C110.75 8.82871 111.055 8.77511 111.299 8.6679C111.542 8.56069 111.736 8.38818 111.884 8.15135C112.03 7.91452 112.133 7.60751 112.196 7.23034C112.256 6.85316 112.287 6.39606 112.287 5.85613C112.287 5.31034 112.257 4.85129 112.196 4.47704C112.133 4.10376 112.03 3.80163 111.884 3.57065C111.737 3.33966 111.542 3.17398 111.299 3.07359C111.055 2.97321 110.751 2.92253 110.386 2.92253C110.022 2.92253 109.718 2.97321 109.474 3.07359C109.23 3.17495 109.036 3.33966 108.889 3.57065C108.743 3.80066 108.638 4.10279 108.577 4.47704C108.517 4.85129 108.484 5.31034 108.484 5.85613C108.484 6.39606 108.516 6.85316 108.577 7.23034C108.638 7.60751 108.743 7.91452 108.889 8.15135C109.035 8.38916 109.23 8.56069 109.474 8.6679C109.718 8.77511 110.022 8.82871 110.386 8.82871Z" fill="#222222"/>
<path d="M113.749 2.38672H114.509L116.38 8.64377H116.419L118.272 2.38672H118.993L116.897 9.36498H115.854L113.749 2.38672Z" fill="#222222"/>
<path d="M120.057 9.36498V2.38672H124.239V3.01047H120.797V5.53474H123.78V6.15849H120.797V8.74123H124.239V9.36498H120.057Z" fill="#222222"/>
<path d="M126.442 3.17616H126.403V9.36498H125.72V2.38672H126.812L129.941 8.5658H129.98V2.38672H130.661V9.36498H129.58L126.442 3.17616Z" fill="#222222"/>
<path d="M132.592 9.36498V2.38672H133.333V9.36498H132.592Z" fill="#222222"/>
<path d="M138.675 7.6594H135.712L135.176 9.36498H134.416L136.706 2.38672H137.702L140.001 9.36498H139.221L138.675 7.6594ZM135.907 7.03565H138.48L137.213 3.04946H137.174L135.907 7.03565Z" fill="#222222"/>
<path d="M38.8096 14.082L40.223 17.2495H40.2718L41.6755 14.082H43.2449V21.0603H42.0167V15.8948H41.9679L40.7787 18.614H39.6284L38.4294 15.9046H38.3807V21.0603H37.1914V14.082H38.8096Z" fill="#222222"/>
<path d="M44.7075 21.0603V14.082H46.0625V21.0603H44.7075Z" fill="#222222"/>
<path d="M48.8005 15.8266H48.7517V21.0603H47.543V14.082H49.3366L51.6956 19.4717H51.7444V14.082H52.9531V21.0603H51.1497L48.8005 15.8266Z" fill="#222222"/>
<path d="M54.436 21.0603V14.082H55.791V21.0603H54.436Z" fill="#222222"/>
<path d="M61.581 19.0368C61.581 19.4247 61.5332 19.7541 61.4397 20.024C61.3451 20.293 61.193 20.5143 60.9815 20.6858C60.77 20.8583 60.5009 20.9831 60.1724 21.061C59.8449 21.139 59.4462 21.178 58.9783 21.178C58.5757 21.178 58.2101 21.1517 57.8816 21.1C57.5541 21.0474 57.247 20.9762 56.9604 20.8846L57.2041 19.7161C57.4703 19.8067 57.7695 19.8818 58.101 19.9393C58.4324 19.9987 58.7512 20.027 59.0563 20.027C59.2191 20.027 59.3682 20.0143 59.5047 19.988C59.6412 19.9626 59.7581 19.9168 59.8556 19.8515C59.9531 19.7872 60.0291 19.6956 60.0847 19.5786C60.1403 19.4617 60.1675 19.3155 60.1675 19.1401C60.1675 19.0036 60.148 18.8867 60.1091 18.7902C60.0701 18.6917 60.0057 18.607 59.9141 18.5309C59.8225 18.4569 59.7026 18.3886 59.5534 18.3263C59.4043 18.2658 59.2152 18.2015 58.988 18.1372C58.6693 18.0456 58.3866 17.9471 58.14 17.839C57.8933 17.7327 57.6867 17.5972 57.521 17.4345C57.3552 17.2727 57.2285 17.0758 57.1408 16.8458C57.0531 16.6158 57.0092 16.3312 57.0092 15.993C57.0092 15.2523 57.211 14.7289 57.6136 14.4239C58.0171 14.1198 58.6147 13.9658 59.4072 13.9658C59.7445 13.9658 60.0603 13.9951 60.3528 14.0545C60.6452 14.114 60.9474 14.2046 61.2593 14.3294L61.0936 15.457C60.8528 15.3585 60.5896 15.2825 60.304 15.228C60.0184 15.1724 59.7289 15.1451 59.4364 15.1451C59.2873 15.1451 59.1508 15.1539 59.027 15.1695C58.9032 15.186 58.796 15.2211 58.7053 15.2757C58.6147 15.3303 58.5426 15.4073 58.4909 15.5038C58.4392 15.6022 58.4129 15.7309 58.4129 15.8926C58.4129 16.0554 58.4382 16.1918 58.4909 16.302C58.5435 16.4121 58.6205 16.5057 58.7248 16.5836C58.8282 16.6616 58.9568 16.7289 59.1099 16.7883C59.2629 16.8468 59.4423 16.9053 59.6509 16.9637C60.0077 17.0671 60.3099 17.1752 60.5575 17.2844C60.8041 17.3945 61.003 17.5281 61.1521 17.684C61.3012 17.839 61.4104 18.0241 61.4787 18.2376C61.5469 18.452 61.581 18.7181 61.581 19.0358V19.0368Z" fill="#222222"/>
<path d="M65.1276 15.2613V21.0603H63.7726V15.2613H61.9497V14.082H66.9504V15.2613H65.1276Z" fill="#222222"/>
<path d="M72.769 16.158C72.769 16.6453 72.6813 17.0546 72.5058 17.386C72.3303 17.7174 72.0438 17.961 71.648 18.117L73.1882 21.0613H71.6285L70.2735 18.3216H69.2402V21.0613H67.8853V14.083H70.293C70.7677 14.083 71.1635 14.1269 71.4823 14.2146C71.8001 14.3023 72.0535 14.4348 72.2426 14.6093C72.4317 14.7838 72.5663 15.0021 72.6472 15.2623C72.7281 15.5225 72.769 15.8198 72.769 16.158ZM71.3848 16.197C71.3848 15.8198 71.2971 15.5674 71.1216 15.4368C70.9461 15.3071 70.64 15.2418 70.2053 15.2418H69.2402V17.2115H70.2053C70.4392 17.2115 70.6322 17.193 70.7853 17.1579C70.9383 17.1219 71.0582 17.0644 71.146 16.9864C71.2337 16.9094 71.2951 16.8041 71.3312 16.6755C71.3672 16.5449 71.3848 16.386 71.3848 16.1979V16.197Z" fill="#222222"/>
<path d="M76.8727 18.7797V21.0603H75.5177V18.7992L73.4121 14.082H74.8548L76.2049 17.4152H76.2537L77.6028 14.082H78.9773L76.8727 18.7797Z" fill="#222222"/>
<path d="M84.4577 21.177C83.9762 21.177 83.557 21.1215 83.1993 21.0113C82.8425 20.9012 82.5442 20.7082 82.3083 20.4353C82.0704 20.1634 81.893 19.796 81.777 19.334C81.6591 18.873 81.6006 18.2921 81.6006 17.5894C81.6006 16.8867 81.6591 16.3049 81.777 15.84C81.893 15.3751 82.0704 15.0038 82.3083 14.7241C82.5442 14.4444 82.8425 14.2485 83.1993 14.1344C83.557 14.0214 83.9762 13.9639 84.4577 13.9639C84.9315 13.9639 85.3458 14.0214 85.6996 14.1344C86.0535 14.2485 86.3498 14.4434 86.5867 14.7202C86.8236 14.997 87.001 15.3644 87.118 15.8264C87.2349 16.2883 87.2934 16.8653 87.2934 17.5612C87.2934 18.2697 87.2369 18.8555 87.1228 19.3204C87.0088 19.7853 86.8353 20.1546 86.6013 20.4314C86.3674 20.7082 86.072 20.9012 85.7142 21.0123C85.3575 21.1224 84.9373 21.177 84.4577 21.177ZM84.447 19.9977C84.7336 19.9977 84.9685 19.9568 85.1547 19.8759C85.339 19.794 85.4861 19.6595 85.5924 19.4714C85.6996 19.2833 85.7757 19.0309 85.8166 18.7161C85.8575 18.4013 85.879 18.0124 85.879 17.5514C85.879 17.0846 85.8585 16.6957 85.8166 16.3877C85.7747 16.0798 85.6996 15.8322 85.5924 15.6461C85.4861 15.4619 85.339 15.3313 85.1547 15.2572C84.9695 15.1821 84.7336 15.1451 84.447 15.1451C84.1604 15.1451 83.9265 15.1821 83.7393 15.2572C83.5551 15.3313 83.4079 15.4619 83.3016 15.6461C83.1954 15.8312 83.1184 16.0788 83.0774 16.3877C83.0365 16.6967 83.015 17.0846 83.015 17.5514C83.015 18.0134 83.0355 18.4013 83.0774 18.7161C83.1193 19.0309 83.1954 19.2833 83.3016 19.4714C83.4079 19.6595 83.5551 19.794 83.7393 19.8759C83.9255 19.9568 84.1604 19.9977 84.447 19.9977Z" fill="#222222"/>
<path d="M89.8574 15.2613V17.0351H92.4406V18.1939H89.8574V21.0593H88.5024V14.0811H92.8793V15.2603H89.8564L89.8574 15.2613Z" fill="#222222"/>
<path d="M100.092 15.378C99.9043 15.3069 99.7035 15.2494 99.489 15.2075C99.2736 15.1646 99.0299 15.1441 98.7579 15.1441C98.4187 15.1441 98.137 15.1812 97.9089 15.2562C97.6827 15.3313 97.4994 15.458 97.363 15.6373C97.2265 15.8166 97.13 16.0593 97.0705 16.3653C97.0111 16.6704 96.9828 17.0583 96.9828 17.5271C96.9828 18.0154 97.013 18.4188 97.0754 18.7375C97.1378 19.0562 97.2382 19.3087 97.3776 19.4939C97.5189 19.679 97.7012 19.8096 97.9284 19.8847C98.1555 19.9587 98.4323 19.9968 98.7579 19.9968C99.0299 19.9968 99.2804 19.9743 99.5085 19.9285C99.7366 19.8827 99.9501 19.8213 100.152 19.7434L100.357 20.8193C100.084 20.9353 99.7961 21.024 99.4929 21.0844C99.1907 21.1449 98.8642 21.177 98.5142 21.177C98.0005 21.177 97.5589 21.1107 97.1885 20.9772C96.8181 20.8437 96.5129 20.6322 96.2722 20.3437C96.0324 20.0543 95.855 19.6829 95.7409 19.2278C95.6269 18.7726 95.5703 18.221 95.5703 17.5709C95.5703 16.9413 95.6259 16.3985 95.736 15.9433C95.8462 15.4882 96.0236 15.1139 96.2673 14.8225C96.511 14.5311 96.8239 14.3147 97.209 14.1744C97.5921 14.034 98.0522 13.9648 98.5932 13.9648C98.9499 13.9648 99.2648 13.9921 99.5378 14.0477C99.8117 14.1032 100.061 14.1734 100.289 14.2572L100.094 15.378H100.092Z" fill="#222222"/>
<path d="M106.653 14.082V18.5653C106.653 19.4882 106.419 20.1539 105.949 20.5642C105.48 20.9736 104.819 21.1782 103.966 21.1782C103.557 21.1782 103.189 21.1305 102.863 21.0359C102.537 20.9414 102.264 20.7923 102.043 20.5876C101.821 20.3829 101.652 20.1188 101.535 19.7943C101.418 19.4687 101.36 19.0731 101.36 18.6043V14.082H102.714V18.4581C102.714 18.769 102.742 19.0243 102.798 19.2231C102.853 19.421 102.934 19.5769 103.041 19.69C103.148 19.804 103.281 19.883 103.441 19.9288C103.6 19.9746 103.786 19.997 104.001 19.997C104.222 19.997 104.414 19.9746 104.576 19.9288C104.739 19.883 104.874 19.804 104.981 19.69C105.087 19.5769 105.167 19.4259 105.219 19.2368C105.272 19.0487 105.297 18.8109 105.297 18.5253V14.0811H106.653V14.082Z" fill="#222222"/>
<path d="M108.047 21.0603V14.082H109.402V19.881H112.306V21.0603H108.047Z" fill="#222222"/>
<path d="M115.874 15.2613V21.0603H114.519V15.2613H112.696V14.082H117.698V15.2613H115.874Z" fill="#222222"/>
<path d="M123.848 14.082V18.5653C123.848 19.4882 123.613 20.1539 123.145 20.5642C122.676 20.9736 122.015 21.1782 121.163 21.1782C120.751 21.1782 120.384 21.1305 120.058 21.0359C119.733 20.9414 119.46 20.7923 119.238 20.5876C119.016 20.3829 118.848 20.1188 118.73 19.7943C118.613 19.4687 118.553 19.0731 118.553 18.6043V14.082H119.909V18.4581C119.909 18.769 119.936 19.0243 119.992 19.2231C120.048 19.421 120.129 19.5769 120.236 19.69C120.342 19.804 120.476 19.883 120.635 19.9288C120.794 19.9746 120.98 19.997 121.195 19.997C121.416 19.997 121.608 19.9746 121.771 19.9288C121.933 19.883 122.068 19.804 122.175 19.69C122.282 19.5769 122.362 19.4259 122.413 19.2368C122.466 19.0487 122.491 18.8109 122.491 18.5253V14.0811H123.847L123.848 14.082Z" fill="#222222"/>
<path d="M130.125 16.158C130.125 16.6453 130.038 17.0546 129.862 17.386C129.687 17.7174 129.4 17.961 129.004 18.117L130.545 21.0613H128.984L127.629 18.3216H126.596V21.0613H125.24V14.083H127.648C128.122 14.083 128.519 14.1269 128.838 14.2146C129.156 14.3023 129.409 14.4348 129.598 14.6093C129.785 14.7847 129.921 15.0021 130.002 15.2623C130.084 15.5225 130.123 15.8208 130.123 16.1589L130.125 16.158ZM128.741 16.197C128.741 15.8198 128.653 15.5674 128.478 15.4368C128.303 15.3071 127.997 15.2418 127.562 15.2418H126.598V17.2115H127.562C127.796 17.2115 127.989 17.193 128.143 17.1579C128.295 17.1219 128.415 17.0644 128.503 16.9864C128.591 16.9094 128.652 16.8041 128.688 16.6755C128.724 16.5449 128.741 16.386 128.741 16.1979V16.197Z" fill="#222222"/>
<path d="M131.471 21.0603V14.082H135.935V15.2613H132.827V16.9669H135.536V18.1267H132.827V19.881H135.935V21.0603H131.471Z" fill="#222222"/>
<path d="M17.9266 12.6311C17.8476 13.8786 17.5854 15.0725 17.137 16.2128C16.6886 17.3531 16.0891 18.391 15.3385 19.3267C14.5879 20.2623 13.7008 21.0761 12.6773 21.7681C11.6538 22.4601 10.5279 22.9815 9.29961 23.3324C8.11035 23 7.00395 22.4991 5.98041 21.8256C4.95687 21.1541 4.06492 20.3491 3.30458 19.4134C2.54423 18.4778 1.93011 17.4359 1.4622 16.2849C0.994297 15.1348 0.721353 13.9166 0.643369 12.6301L0 2.25137C1.52069 1.51066 3.01701 0.950253 4.48896 0.570152C5.96091 0.190051 7.56446 0 9.29961 0C10.8788 0 12.4336 0.181279 13.964 0.540913C15.4945 0.901522 17.0298 1.47265 18.57 2.25137L17.9266 12.6311ZM17.8389 2.66071C17.7414 2.62172 17.6488 2.57884 17.561 2.52913C17.4733 2.4804 17.371 2.43655 17.254 2.39756L16.6106 12.5433C16.5521 13.5969 16.3377 14.6144 15.9672 15.5988C15.5968 16.5831 15.0948 17.4856 14.4612 18.3033C13.8276 19.122 13.077 19.8481 12.2094 20.4806C11.3418 21.1141 10.3719 21.6063 9.29961 21.9581C8.28581 21.6268 7.34513 21.159 6.47755 20.5547C5.60998 19.9514 4.85451 19.2438 4.21114 18.4349C3.56777 17.626 3.05113 16.7196 2.66121 15.7157C2.27129 14.7119 2.03733 13.6544 1.95935 12.5433L1.31598 2.39756C1.21753 2.43655 1.11517 2.4804 1.00892 2.52913C0.901691 2.57786 0.80811 2.62172 0.731101 2.66071L1.34523 12.5726C1.42321 13.7421 1.67178 14.8629 2.09095 15.935C2.51011 17.0081 3.06575 17.9827 3.75786 18.8589C4.44899 19.736 5.2688 20.4972 6.21436 21.1404C7.15992 21.7827 8.18833 22.27 9.29961 22.6024C10.3914 22.27 11.4052 21.7886 12.341 21.1551C13.2768 20.5225 14.0956 19.7662 14.7975 18.8891C15.4993 18.0119 16.0589 17.0383 16.479 15.9652C16.8982 14.8931 17.1468 13.7626 17.2247 12.5735L17.8389 2.66071ZM7.39874 11.9001L6.08276 10.1458L2.9244 14.3561C3.04138 14.9029 3.24999 15.3025 3.55315 15.5549C3.85534 15.8083 4.33787 15.935 5.00073 15.935C5.23468 15.935 5.42477 15.9067 5.57099 15.8473C5.71721 15.7888 5.86343 15.7264 6.00965 15.6582C6.15587 15.59 6.31184 15.5257 6.47755 15.4682C6.6423 15.4087 6.8626 15.3804 7.13555 15.3804C7.40849 15.3804 7.62782 15.4087 7.79354 15.4682C7.95828 15.5266 8.11522 15.59 8.26144 15.6582C8.40766 15.7264 8.55388 15.7898 8.7001 15.8473C8.84632 15.9067 9.04616 15.935 9.29961 15.935C9.53356 15.935 9.72364 15.9067 9.86986 15.8473C10.0161 15.7888 10.1574 15.7264 10.2939 15.6582C10.4304 15.59 10.5815 15.5257 10.7472 15.4682C10.9129 15.4087 11.1322 15.3804 11.4052 15.3804C11.6781 15.3804 11.9023 15.4087 12.0778 15.4682C12.2533 15.5266 12.4141 15.59 12.5603 15.6582C12.7065 15.7264 12.8528 15.7898 12.999 15.8473C13.1452 15.9067 13.3353 15.935 13.5692 15.935C14.2126 15.935 14.7 15.7937 15.0314 15.511C15.3629 15.2284 15.5676 14.8347 15.6456 14.3269L12.4872 10.1448L11.1712 11.8991L9.29961 8.12734L7.39874 11.8991V11.9001ZM11.4052 16.8414C11.6576 16.8414 11.8624 16.8697 12.0193 16.9291C12.1753 16.9876 12.3264 17.0558 12.4726 17.1338C12.6188 17.2118 12.7699 17.279 12.9259 17.3385C13.0818 17.3969 13.2963 17.4262 13.5692 17.4262C13.7252 17.4262 13.8665 17.4067 13.9933 17.3677C14.12 17.3287 14.2418 17.2897 14.3588 17.2507C14.4563 17.0948 14.5343 16.9632 14.5928 16.856C14.6513 16.7498 14.7292 16.6172 14.8267 16.4613C14.6318 16.5597 14.4319 16.6377 14.2272 16.6952C14.0225 16.7547 13.8032 16.7829 13.5692 16.7829C13.2963 16.7829 13.0818 16.7547 12.9259 16.6952C12.7699 16.6367 12.6237 16.5734 12.4872 16.5052C12.3507 16.4379 12.1996 16.3736 12.0339 16.3161C11.8682 16.2566 11.6586 16.2284 11.4052 16.2284C11.1517 16.2284 10.947 16.2566 10.7911 16.3161C10.6351 16.3746 10.4889 16.4379 10.3524 16.5052C10.2159 16.5734 10.0648 16.6377 9.89911 16.6952C9.73339 16.7547 9.52381 16.7829 9.27036 16.7829C8.99742 16.7829 8.78296 16.7547 8.62699 16.6952C8.47005 16.6367 8.32968 16.5734 8.20295 16.5052C8.07623 16.4379 7.93001 16.3736 7.76429 16.3161C7.59858 16.2566 7.38899 16.2284 7.13555 16.2284C6.8821 16.2284 6.67252 16.2566 6.5068 16.3161C6.34108 16.3746 6.18999 16.4379 6.05352 16.5052C5.91704 16.5734 5.77082 16.6377 5.61486 16.6952C5.45889 16.7547 5.25418 16.7829 5.00073 16.7829C4.72779 16.7829 4.49383 16.7439 4.29887 16.666C4.10391 16.589 3.9187 16.511 3.74324 16.433C3.82122 16.5695 3.89433 16.7059 3.96257 16.8424C4.0308 16.9788 4.11366 17.1153 4.21114 17.2517C4.50358 17.3492 4.76678 17.3969 5.00073 17.3969C5.27368 17.3969 5.48813 17.3687 5.6441 17.3092C5.80007 17.2507 5.94629 17.1884 6.08276 17.1201C6.21923 17.0519 6.36058 16.9876 6.5068 16.9301C6.65302 16.8706 6.8626 16.8424 7.13555 16.8424C7.38899 16.8424 7.5937 16.8706 7.74967 16.9301C7.90564 16.9886 8.05673 17.0568 8.20295 17.1348C8.34917 17.2127 8.50027 17.28 8.65624 17.3394C8.8122 17.3979 9.01691 17.4271 9.27036 17.4271C9.52381 17.4271 9.73339 17.3979 9.89911 17.3394C10.0648 17.28 10.2159 17.2127 10.3524 17.1348C10.4889 17.0568 10.6351 16.9886 10.7911 16.9301C10.947 16.8706 11.1517 16.8414 11.4052 16.8414ZM13.6277 18.2439C13.3353 18.2439 13.1013 18.2156 12.9259 18.1562C12.7504 18.0977 12.5896 18.0343 12.4433 17.9661C12.2971 17.8989 12.1509 17.8345 12.0047 17.777C11.8585 17.7176 11.6586 17.6893 11.4052 17.6893C11.1712 17.6893 10.9811 17.7176 10.8349 17.777C10.6887 17.8355 10.5474 17.8989 10.4109 17.9661C10.2744 18.0343 10.1233 18.0987 9.9576 18.1562C9.79188 18.2156 9.57255 18.2439 9.29961 18.2439C9.02666 18.2439 8.80246 18.2156 8.62699 18.1562C8.45153 18.0977 8.29068 18.0343 8.14446 17.9661C7.99824 17.8989 7.85203 17.8345 7.7058 17.777C7.55958 17.7176 7.3695 17.6893 7.13555 17.6893C6.90159 17.6893 6.71151 17.7176 6.56529 17.777C6.41907 17.8355 6.27772 17.8989 6.14125 17.9661C6.00478 18.0343 5.84881 18.0987 5.67334 18.1562C5.49788 18.2156 5.25418 18.2439 4.94224 18.2439C5.50763 18.9076 6.15587 19.4914 6.88697 19.9982C7.61807 20.506 8.42228 20.9143 9.29961 21.2272C10.9958 20.6229 12.4385 19.6288 13.6277 18.2439ZM6.69689 2.16365L5.87805 2.07594L6.3752 2.71918L5.84881 3.36243L6.69689 3.27472L7.01857 4.03492L7.34025 3.27472L8.12984 3.36243L7.66194 2.71918L8.12984 2.07594L7.34025 2.16365L7.01857 1.43269L6.69689 2.16365ZM8.97792 5.17522L8.15909 5.08751L8.65624 5.73075L8.12984 6.374L8.97792 6.28629L9.29961 7.04649L9.62129 6.28629L10.4109 6.374L9.94297 5.73075L10.4109 5.08751L9.62129 5.17522L9.29961 4.44426L8.97792 5.17522ZM11.2005 2.16365L10.3816 2.07594L10.8788 2.71918L10.3524 3.36243L11.2005 3.27472L11.5222 4.03492L11.8438 3.27472L12.6334 3.36243L12.1655 2.71918L12.6334 2.07594L11.8438 2.16365L11.5222 1.43269L11.2005 2.16365Z" fill="#549DBE"/>
</g>
<defs>
<clipPath id="clip0_514_4309">
<rect width="140" height="23.3333" fill="white"/>
</clipPath>
</defs>
</svg>
