<svg width="90" height="41" viewBox="0 0 90 41" fill="none" xmlns="http://www.w3.org/2000/svg">
<g clip-path="url(#clip0_514_4308)">
<path d="M16.0039 40.3298C6.01437 38.4706 0 30.1576 0 21.724V1.23535H32.042V21.724C32.042 30.1576 26.0269 38.4706 16.0381 40.3298L16.0206 40.3333L16.0039 40.3298ZM0.1876 21.724C0.188298 30.0673 6.13292 38.2954 16.0206 40.145C25.9084 38.2954 31.8537 30.0673 31.8537 21.724V1.42087H0.1876V21.724Z" fill="#222222"/>
<path d="M0.1875 1.4209V21.724C0.188197 30.0673 6.13282 38.2954 16.0205 40.1444C25.9083 38.2947 31.8536 30.0673 31.8536 21.724V1.4209H0.1875Z" fill="#FFED00"/>
<path d="M16.0206 39.6735C20.5726 38.8018 24.462 36.5259 27.276 33.0839C29.9261 29.8433 31.385 25.8082 31.385 21.7241V1.88379H0.65625V21.7241C0.655553 25.8082 2.11521 29.8433 4.76532 33.0839C7.58072 36.5253 11.4694 38.8018 16.0206 39.6735Z" fill="white"/>
<path d="M16.0207 39.0585C20.3801 38.1992 24.1035 36.0048 26.8032 32.7048C29.3654 29.5718 30.7763 25.6698 30.7763 21.7229V2.48535H1.26514V21.7229C1.26514 25.6698 2.67597 29.5718 5.23891 32.7048C7.93785 36.0034 11.6606 38.1992 16.0207 39.0585Z" fill="#E30613"/>
<path d="M8.01937 9.80569C7.83665 10.3843 7.6107 11.0312 7.06882 11.6746C6.90214 11.8705 6.73337 12.0753 6.60575 12.2608V12.2594C6.60575 12.1601 6.60017 12.0498 6.5918 11.9415C6.60574 11.9457 6.62039 11.9491 6.63852 11.9491C6.76615 11.9415 6.87145 11.8415 7.04929 11.6208C7.76761 10.6995 7.72507 9.29743 8.1463 8.63192C8.14769 8.62916 8.14769 8.62571 8.14909 8.62296C8.19093 8.57261 8.23347 8.5202 8.27811 8.46503C8.37644 8.34503 8.46083 8.31055 8.52638 8.31055C8.58636 8.31055 8.64354 8.34227 8.68818 8.39399C8.32971 8.74502 8.19651 9.24501 8.01937 9.80569Z" fill="#009640"/>
<path d="M11.5947 22.8005H12.1743V21.2799H13.8606V22.8005H15.178V21.2799H15.9312V14.1572H11.5947V22.8005ZM20.4468 22.8005V14.1572H16.1188V21.2799H16.8629V22.8005H18.1803V21.2799H19.8666V22.8005H20.4468Z" fill="white"/>
<path d="M14.6986 15.3438H12.8247V17.6692H14.6986V15.3438Z" fill="#222222"/>
<path d="M19.2181 15.3438H17.3442V17.6692H19.2181V15.3438Z" fill="#222222"/>
<path d="M16.0209 39.0586C20.2422 38.2262 23.8666 36.1421 26.5432 33.0146C25.334 32.376 23.9538 32.0125 22.4865 32.0125C21.6886 32.0125 20.9173 32.1229 20.1851 32.3236C21.1419 32.8325 21.9927 33.5118 22.695 34.3194H22.6964L22.5534 34.4408C20.9731 32.6249 18.634 31.4746 16.0209 31.4746C13.4077 31.4746 11.068 32.6249 9.48766 34.4408L9.34539 34.3194C10.0491 33.5111 10.8992 32.8325 11.8567 32.3236C11.1238 32.1229 10.3524 32.0125 9.5553 32.0125C8.08798 32.0125 6.70782 32.376 5.49854 33.0146C8.17445 36.1414 11.7988 38.2262 16.0209 39.0586Z" fill="#009640"/>
<path d="M6.87207 32.241C7.71732 31.9741 8.61905 31.8286 9.55427 31.8286C10.1903 31.8286 10.8096 31.8976 11.4066 32.0238V24.3232H6.87207V32.241ZM20.6338 24.3239V32.0245C21.2308 31.8976 21.8501 31.8293 22.4861 31.8293C23.4206 31.8293 24.3224 31.9748 25.1683 32.2417V24.3246L20.6338 24.3239ZM16.0547 25.9618C14.9731 25.9674 13.8844 26.7508 13.8649 28.3487V31.5542C14.0511 31.5073 14.2408 31.4666 14.4326 31.4314C14.427 30.5624 14.4221 29.2156 14.4326 28.2487C14.4563 25.9894 17.5499 25.9425 17.6239 28.2487C17.6239 28.6783 17.6197 30.3576 17.6169 31.4342C17.808 31.4679 17.9977 31.5093 18.1846 31.5569V28.3487C18.1797 26.7308 17.1252 25.9674 16.0547 25.9618ZM11.5942 32.0672C11.7636 32.1079 11.9324 32.1507 12.0984 32.2003C12.5991 31.9528 13.1277 31.7521 13.6773 31.6024V28.3466C13.6912 26.6577 14.8803 25.7729 16.0547 25.7763C16.6357 25.7763 17.2166 25.9894 17.6518 26.4204C18.0876 26.8508 18.3729 27.497 18.3722 28.348V31.6052C18.9182 31.7548 19.4441 31.9541 19.942 32.2003C20.108 32.1507 20.2761 32.1072 20.4462 32.0672V24.3239H11.5942V32.0672Z" fill="white"/>
<path d="M7.96837 6.13531C7.96977 6.13117 7.97116 6.12634 7.97256 6.12152C7.907 5.93462 7.77938 5.7229 7.65943 5.42773C7.61828 5.81324 7.50391 6.24151 7.50391 6.54771C7.50391 6.61737 7.51088 6.67944 7.52413 6.73254C7.63711 6.52565 7.78844 6.3222 7.96837 6.13531Z" fill="#009640"/>
<path d="M27.6303 11.3035C27.0731 11.1159 25.9614 10.8594 25.2152 10.7787C25.2152 10.7787 25.5527 10.8587 25.5653 10.9649L25.5695 11.0263L25.5067 11.0311C25.354 11.0428 25.2494 11.0476 25.098 11.0476C24.4432 11.0476 23.8148 10.9566 23.2632 10.7676C22.6243 10.549 22.0873 10.2187 21.7219 9.80627C21.4046 9.44835 21.2198 9.02767 21.2198 8.57112C21.2198 8.14354 21.399 7.81527 21.6605 7.5939C21.883 7.40425 22.1982 7.28563 22.5072 7.28839C22.7868 7.29114 23.1244 7.43666 23.3259 7.62562C23.517 7.80286 23.6949 8.09389 23.6976 8.44078C23.7018 8.91318 23.5059 9.26835 23.1802 9.49386C22.8642 9.71179 22.4277 9.80214 21.9235 9.81662C22.2582 10.1539 22.7269 10.4311 23.2771 10.6249C24.3065 10.1414 24.8107 9.32628 24.8121 8.41802C24.8107 7.27873 23.9306 6.35392 22.7297 6.35254C21.2533 6.3553 20.491 7.30976 20.4868 8.33526C20.4868 8.76629 20.5754 9.13249 20.733 9.44559C21.1012 10.1801 21.8544 10.6325 22.7624 10.8876C22.7624 10.8876 22.7645 10.8876 22.7659 10.8876L22.7673 10.8897C22.7715 10.8911 22.7771 10.8925 22.7827 10.8945C23.5003 11.0945 24.3093 11.1856 25.0883 11.1856C25.2452 11.1856 25.3393 11.1821 25.492 11.1766L25.5722 11.1731L25.5653 11.2373C25.5492 11.318 25.4669 11.3718 25.4098 11.4152C25.3665 11.4449 25.2152 11.5118 25.2152 11.5118C25.7494 11.4393 26.543 11.2456 27.1784 11.2718C27.3088 11.2773 27.6303 11.3042 27.6303 11.3042" fill="#009640"/>
<path d="M0.984863 2.20801V21.7235C0.984863 25.7366 2.41871 29.6972 5.02071 32.8806C7.76707 36.2371 11.5623 38.4715 15.9943 39.337L16.0208 39.3419L16.0487 39.337C20.4792 38.4708 24.2759 36.2371 27.0215 32.8806C29.6249 29.6979 31.0574 25.7373 31.0574 21.7235V2.20801H0.984863ZM16.0215 39.0591C11.7994 38.2267 8.17504 36.144 5.49913 33.0158C6.70772 32.3771 8.08857 32.013 9.5552 32.013C10.353 32.013 11.1236 32.124 11.8573 32.3247C10.8998 32.8337 10.049 33.5123 9.34528 34.3206L9.48825 34.4426C11.0686 32.6261 13.4083 31.4758 16.0215 31.4758C18.6346 31.4758 20.973 32.6261 22.554 34.4426L22.697 34.3206H22.6956C21.9933 33.5123 21.1418 32.8344 20.1849 32.3247C20.9179 32.124 21.6892 32.013 22.4871 32.013C23.9544 32.013 25.3338 32.3771 26.5438 33.0158C23.8672 36.1433 20.2421 38.2267 16.0215 39.0591ZM9.35644 22.9835V21.4628H10.6738V22.9835H12.3594V21.4628H13.6761V22.9835H15.3624V21.4628H16.6798V22.9835H18.3654V21.4628H19.6828V22.9835H21.3684V21.4628H22.6858V22.9835H24.3721V21.4628H25.6895V24.1414H6.35204V21.4628H7.67013V22.9835H9.35574H9.35644ZM12.6398 11.2148C12.6384 11.2072 12.637 11.1982 12.637 11.1879C12.6398 11.0692 12.7186 10.863 13.3253 10.7837V10.6458C11.9626 10.4796 10.9088 9.36444 10.6306 8.79272C10.4207 8.36307 10.3077 7.88239 10.2958 7.44309C10.2903 7.24378 10.2561 7.09068 10.1919 6.98172C10.1285 6.87207 10.0232 6.80793 9.90599 6.80862C9.64446 6.81552 9.41711 6.97965 9.08306 7.49205L9.0168 7.61343C9.33552 7.76171 9.37248 7.87757 9.37597 8.06446C9.37736 8.30239 9.233 8.61824 9.07399 8.90582C8.91708 9.19203 8.7511 9.44237 8.70507 9.60995C8.6967 9.62857 8.69251 9.64857 8.69251 9.66857C8.70507 9.80719 8.82851 9.85477 8.94009 9.90719C8.96868 9.91891 8.99867 9.92994 9.02727 9.94167C8.88569 9.98236 8.77829 10.0506 8.70228 10.1182C8.65555 10.1582 8.61859 10.1982 8.59 10.2313C8.57396 10.1306 8.56559 10.0327 8.56559 9.93822C8.56559 9.36099 8.84385 8.901 8.89964 8.67755C8.90522 8.65135 8.90801 8.62445 8.90801 8.59755C8.90801 8.521 8.88569 8.44514 8.84803 8.37825C8.78527 8.26652 8.67229 8.17342 8.52653 8.17342C8.40658 8.17342 8.28105 8.23825 8.16947 8.37825C8.12065 8.43894 8.07392 8.49618 8.02929 8.55066C7.39675 9.31547 7.16172 9.50581 6.81791 9.73615C6.76351 9.77409 6.65611 9.79822 6.54034 9.79753C6.42457 9.79753 6.30044 9.77477 6.21326 9.73615C6.1219 9.69616 6.08424 9.64719 6.08703 9.61133C6.08564 9.58236 6.10726 9.52788 6.19443 9.45685C7.37652 8.48583 7.44905 7.94446 7.44487 7.49757C7.44487 7.31895 7.49369 7.12241 7.58505 6.92448C7.69523 6.68379 7.86819 6.43897 8.08368 6.21828L8.09554 6.20518L8.09973 6.18863C8.1053 6.16932 8.10949 6.15622 8.11228 6.14794L8.11507 6.1438V6.13966C8.2127 5.79484 8.44075 5.50657 8.49236 5.05072C8.5628 5.24933 8.63951 5.44312 8.70228 5.63071L8.72948 5.71415L8.80549 5.66795C9.13397 5.46864 9.28391 5.28864 9.42269 4.95003C9.42966 5.05623 9.43873 5.17278 9.45268 5.3183L9.46175 5.42519L9.55589 5.37278C9.80835 5.2314 10.1201 5.04865 10.3202 4.81831C10.2916 4.98658 10.2519 5.15761 10.2317 5.24244L10.2128 5.33071L10.3035 5.32726C10.3614 5.32451 10.4249 5.32313 10.4932 5.32313C10.5846 5.32313 10.6808 5.32451 10.7763 5.32451C10.9061 5.32313 11.0288 5.32313 11.1348 5.31209C11.019 5.41554 10.8677 5.51761 10.8259 5.52243L10.6578 5.56243L10.8063 5.64933C11.0149 5.77277 11.3636 5.98449 11.6906 6.14656C11.5839 6.15001 11.4807 6.15553 11.3963 6.15553C11.3489 6.15553 11.3078 6.15277 11.2792 6.14863L11.0476 6.11484L11.222 6.26932C11.4124 6.4369 11.6139 6.69345 11.7966 6.91413C11.9012 7.03689 11.9926 7.14999 12.0798 7.23344C11.888 7.23344 11.7081 7.21965 11.6453 7.2024L11.4737 7.15551L11.5665 7.30585C11.7911 7.66929 12.0868 7.98377 12.4285 8.14653C12.335 8.19618 12.2667 8.2679 12.2151 8.32032L12.167 8.36721L12.2137 8.41618C12.3594 8.57204 12.5666 8.62445 12.7653 8.62376C12.9411 8.62376 13.1126 8.58445 13.2458 8.53342C13.2884 8.51686 13.326 8.49962 13.3602 8.481C13.3497 8.53135 13.3288 8.57342 13.3016 8.61135L13.1886 8.77134L13.3783 8.71824C13.727 8.62169 13.8972 8.41342 14.1992 8.02584L14.2131 8.00653V7.97549C14.1803 7.67205 14.0213 7.28447 13.6057 6.74034C12.6768 5.51968 11.8106 5.2383 11.5937 4.76865C11.5595 4.70107 11.5449 4.63624 11.5449 4.57279C11.5393 4.30521 11.8441 4.01074 12.4613 3.79281C13.0729 3.57557 13.9746 3.43488 15.1065 3.43488C17.1854 3.43488 20.0413 3.90867 23.3302 5.23002C22.9613 5.15072 22.6398 5.11554 22.3699 5.11554C22.0616 5.11554 21.8203 5.16037 21.6488 5.2383C21.48 5.31485 21.3684 5.43347 21.3684 5.58174C21.3698 5.65209 21.3942 5.71898 21.4375 5.78381C19.1151 4.93486 16.8814 4.53831 15.1832 4.53693C14.0771 4.539 13.197 4.70383 12.66 5.03486L12.7353 5.1521C13.2312 4.8452 14.0918 4.67624 15.1832 4.67693C16.6582 4.67624 18.553 4.98106 20.5539 5.62657C20.3928 5.60657 20.2414 5.59554 20.104 5.59554C19.8035 5.59554 19.5622 5.64105 19.3892 5.72588C19.2177 5.80933 19.1075 5.94587 19.1075 6.10932C19.1096 6.24518 19.1779 6.38311 19.3104 6.52311C17.7943 5.88519 16.1554 5.45278 14.8261 5.45278C14.2745 5.45278 13.7745 5.52657 13.3574 5.69484L13.4111 5.82312C13.8044 5.66381 14.2863 5.5914 14.8261 5.5914C16.0208 5.59002 17.4888 5.9507 18.8836 6.49897C18.7804 6.48724 18.6807 6.48173 18.5851 6.48173C17.9261 6.48449 17.4511 6.74172 17.4372 7.10999C17.4372 7.17965 17.4574 7.24792 17.4944 7.31344C16.4399 6.84862 15.3206 6.28794 14.4175 6.28518C14.2605 6.28518 14.1099 6.3038 13.9648 6.34173L14.0032 6.47621C14.1329 6.44104 14.2703 6.42449 14.4175 6.42449C15.2432 6.42242 16.3241 6.94655 17.3584 7.40447C17.1973 7.37757 17.0585 7.36309 16.9413 7.36309C16.7544 7.36309 16.6171 7.39481 16.5194 7.45964C16.4211 7.52378 16.3737 7.62791 16.3751 7.73412C16.3765 7.83274 16.4099 7.93688 16.4657 8.04308C16.1896 7.81412 15.9594 7.61274 15.7425 7.45137C15.405 7.19758 15.0932 7.03689 14.6978 7.03827C14.5862 7.03827 14.4677 7.05068 14.3421 7.07689L14.3714 7.21275C14.4893 7.18792 14.5974 7.17689 14.6978 7.17689C15.0521 7.17689 15.3276 7.31551 15.6581 7.56171C15.8966 7.73964 16.1596 7.97412 16.4908 8.24377C16.2412 8.15963 15.9838 8.11135 15.762 8.11135C15.6023 8.11135 15.4622 8.13411 15.352 8.19204C15.2418 8.24859 15.1637 8.35342 15.1651 8.48583C15.1665 8.621 15.2362 8.7741 15.382 8.95962L15.4935 8.87341C15.3562 8.70169 15.3052 8.56997 15.3052 8.48583C15.308 8.40514 15.3408 8.35825 15.4182 8.3148C15.4963 8.27342 15.6177 8.24928 15.762 8.24997C16.1379 8.24859 16.6582 8.40307 16.9999 8.65135C17.0285 8.67479 17.0557 8.69617 17.0829 8.71617L17.0899 8.7079L17.0913 8.70928L17.1143 8.67686L17.1701 8.60721C17.1701 8.60721 17.1687 8.60583 17.1673 8.60514L17.1743 8.59686C17.1101 8.55066 17.0487 8.50445 16.9888 8.45893C16.7168 8.21963 16.5111 7.91481 16.5152 7.73412C16.5166 7.66309 16.5382 7.61619 16.5982 7.57481C16.6596 7.53274 16.7698 7.5024 16.9413 7.5024C17.1959 7.5024 17.5816 7.56998 18.122 7.73757C18.122 7.73757 18.6005 7.87205 18.8494 7.91619C18.7434 7.98722 18.6862 8.08929 18.6848 8.18446C18.6848 8.20446 18.6876 8.22446 18.6932 8.24308C18.719 8.2948 18.7462 8.30032 18.772 8.31342C18.8648 8.35204 19.0349 8.38238 19.2163 8.41825C19.2965 8.43411 19.3795 8.45273 19.4534 8.47066C19.4408 8.47962 19.4297 8.48997 19.4192 8.50031C19.362 8.55686 19.3195 8.6141 19.3153 8.68859C19.3153 8.70721 19.3195 8.73341 19.3376 8.75479C19.4325 8.85686 19.588 8.8941 19.7463 8.92996C19.8181 8.94582 19.8906 8.95893 19.9541 8.97134C19.9381 8.99824 19.9283 9.02996 19.9283 9.06444C19.9269 9.11272 19.9478 9.16168 19.9855 9.2003C20.118 9.33616 20.4869 9.48168 20.6271 9.54374C20.9988 10.2499 21.699 10.6954 22.5282 10.961C22.114 11.0789 21.6774 11.1196 21.2485 11.1196C20.5839 11.1196 19.9353 11.0258 19.4094 10.9865C19.4067 10.9858 19.4011 10.9858 19.3976 10.9858C19.3767 10.9858 19.3453 10.9954 19.3278 11.0182C19.3111 11.0403 19.3104 11.061 19.3104 11.0754C19.3167 11.1658 19.3864 11.2541 19.3864 11.2623L19.4094 11.2975L19.452 11.2947C19.461 11.2934 19.4722 11.2934 19.4869 11.2934C19.5336 11.2947 19.5608 11.3113 19.5894 11.3513C19.6166 11.3906 19.634 11.4568 19.634 11.5389C19.634 11.7313 19.5691 11.9658 19.3411 12.1706L19.339 11.4065L18.8278 11.4003C18.8278 11.4003 18.8292 11.4741 18.8306 11.4892C18.8348 11.6285 18.7392 11.9044 18.6046 12.1871C18.4631 11.8747 18.3773 11.6251 18.3787 11.4754C18.3787 11.4637 18.3864 11.3975 18.3864 11.3975H17.8445V12.1637C17.6171 11.9575 17.5446 11.7451 17.5446 11.552C17.5446 11.4713 17.5558 11.4044 17.583 11.3644C17.6102 11.3251 17.6387 11.3016 17.6848 11.3003L17.7545 11.2934V11.2244C17.7531 11.1927 17.7761 11.1444 17.8159 11.1065C17.8556 11.0699 17.9058 11.0472 17.94 11.0485C17.9442 11.0485 17.9463 11.0485 17.9547 11.0485H17.9561V10.9092H17.9414C16.7928 10.8127 15.3136 10.8568 14.6434 10.7796C14.6162 10.7754 14.5946 10.7741 14.573 10.7741C14.5388 10.7741 14.4879 10.7796 14.4461 10.7872C14.3477 10.801 14.3017 10.8989 14.3087 10.9651C14.3115 11.0651 14.3714 11.172 14.37 11.2347C14.37 11.2375 14.3672 11.2865 14.3672 11.2865L14.4035 11.3079C14.4502 11.332 14.4788 11.4154 14.4774 11.5382C14.4774 11.5851 14.4726 11.6368 14.4614 11.6913C14.4279 11.8589 14.3359 12.0499 14.1643 12.2051L14.1629 11.3913H13.6943V11.4616C13.6957 11.6223 13.5959 11.9037 13.4627 12.1865C13.3198 11.874 13.234 11.6244 13.2354 11.4734C13.2354 11.4713 13.2368 11.4713 13.2354 11.3954L12.7137 11.3968L12.7158 12.1699C12.5435 12.0147 12.4487 11.8237 12.4131 11.6561C12.4013 11.6023 12.395 11.5506 12.3957 11.5044C12.3957 11.4223 12.4138 11.3968 12.441 11.3568C12.4682 11.3175 12.4954 11.2941 12.5415 11.2927L12.6509 11.2865L12.6398 11.2134V11.2148ZM6.59195 11.9416C6.6059 11.9465 6.62054 11.9499 6.63867 11.9499C6.7663 11.9416 6.87161 11.8423 7.04944 11.6216C7.76776 10.7003 7.72522 9.29823 8.14645 8.63273C8.14785 8.62997 8.14785 8.62652 8.14924 8.62376C8.19108 8.57342 8.23363 8.521 8.27826 8.46583C8.37659 8.34583 8.46098 8.31135 8.52653 8.31135C8.58651 8.31135 8.6437 8.34307 8.68833 8.39411C8.32987 8.74583 8.19666 9.24582 8.01952 9.8065C7.83681 10.3851 7.61085 11.032 7.06897 11.6754C6.90299 11.8706 6.73352 12.0754 6.6059 12.2616V12.2596C6.6059 12.1603 6.60032 12.0506 6.59195 11.9416ZM7.50484 6.54793C7.50484 6.24173 7.61922 5.81346 7.65967 5.42795C7.77962 5.72312 7.90794 5.93484 7.9735 6.12173C7.9721 6.12656 7.97071 6.13139 7.96931 6.13553C7.78938 6.32242 7.63805 6.52586 7.52507 6.73276C7.51182 6.67966 7.50484 6.61759 7.50484 6.54793ZM23.1796 9.49409C23.5053 9.26858 23.7012 8.91272 23.6977 8.44031C23.695 8.09411 23.5164 7.80308 23.3253 7.62516C23.1245 7.43688 22.7862 7.29137 22.5066 7.28861C22.1976 7.28585 21.8824 7.40447 21.6606 7.59412C21.3991 7.81481 21.2192 8.14377 21.2192 8.57066C21.2192 9.02789 21.404 9.44788 21.722 9.80581C22.0868 10.2182 22.6237 10.5492 23.2626 10.7679C23.8142 10.9561 24.4426 11.0479 25.0974 11.0479C25.2488 11.0479 25.3541 11.0423 25.5061 11.0313L25.5689 11.0265L25.5647 10.9644C25.5528 10.8589 25.2146 10.7789 25.2146 10.7789C25.9615 10.8596 27.0725 11.1154 27.6297 11.3037C27.6297 11.3037 27.3082 11.2768 27.1778 11.2713C26.5431 11.2451 25.7488 11.4389 25.2146 11.5113C25.2146 11.5113 25.3659 11.4437 25.4099 11.4147C25.467 11.3713 25.5486 11.3175 25.5647 11.2368L25.5717 11.172L25.4915 11.1761C25.3387 11.181 25.2446 11.1851 25.0884 11.1851C24.3087 11.1851 23.4997 11.0934 22.7821 10.8941C22.7765 10.892 22.7709 10.8899 22.7674 10.8892L22.766 10.8865C22.766 10.8865 22.7632 10.8879 22.7618 10.8879C21.8538 10.6327 21.1006 10.1803 20.7331 9.44513C20.5748 9.13272 20.4862 8.76583 20.4862 8.3348C20.4904 7.30999 21.2534 6.35552 22.7291 6.35276C23.9307 6.35276 24.8101 7.27896 24.8115 8.41825C24.8101 9.32582 24.3066 10.1417 23.2765 10.6251C22.7263 10.4313 22.2576 10.1534 21.9236 9.81684C22.4264 9.80167 22.8637 9.71133 23.1796 9.49409ZM21.7966 9.6796C21.5177 9.35064 21.3447 8.97617 21.3447 8.57066C21.3447 7.79895 22.0498 7.34378 22.6007 7.4293C23.1782 7.51757 23.5506 7.95412 23.5652 8.39549C23.582 8.85893 23.3797 9.20927 23.1022 9.3934C22.7904 9.59823 22.3392 9.67891 21.7966 9.6796ZM15.2808 11.3782V12.6823H14.1769V12.3692C14.4865 12.1306 14.6309 11.7982 14.6309 11.5396C14.6309 11.4065 14.5953 11.2851 14.5081 11.2127C14.5011 11.1196 14.4684 11.023 14.4698 10.9665C14.4767 10.9217 14.467 10.9348 14.4928 10.9251C14.5367 10.9161 14.5541 10.9134 14.5723 10.9134C14.5841 10.9134 14.5995 10.9154 14.6253 10.9182C15.2718 10.9913 16.5933 10.9589 17.6952 11.0313C17.6625 11.0692 17.6367 11.1127 17.6234 11.1616C17.5565 11.1775 17.5007 11.2203 17.4651 11.2768C17.4177 11.3472 17.3967 11.4382 17.3967 11.5382C17.3967 11.8009 17.5432 12.1403 17.864 12.3802V12.6823H16.7593V11.3782H15.2808ZM12.886 12.8671V11.563H13.0812C13.0903 11.7823 13.2075 12.0085 13.3825 12.3802L13.4592 12.5106L13.5436 12.3816C13.7138 12.0389 13.8435 11.7727 13.8484 11.5741L13.99 11.5782V12.8671H15.4684V11.563H16.5724V12.8671H18.0516V11.563H18.2239C18.235 11.7809 18.3515 12.0127 18.5258 12.3802L18.6012 12.5106L18.6786 12.3816C18.8452 12.0465 18.9757 11.7968 18.9819 11.563H19.1556V12.8671H20.6341V11.563H21.7381V13.9726H10.3021V11.563H11.4068V12.8671H12.886ZM18.1799 21.2808V22.8014H16.8632V21.2808H16.1184V14.1581H20.4465V22.8014H19.8662V21.2808H18.1799ZM11.5944 14.1581H15.9315V21.2808H15.1783V22.8014H13.8602V21.2808H12.1739V22.8014H11.5944V14.1581ZM25.1686 24.3235V32.2406C24.3226 31.9744 23.4209 31.8289 22.4864 31.8289C21.8503 31.8289 21.231 31.8972 20.6341 32.0234V24.3228L25.1686 24.3235ZM17.652 26.4207C17.2168 25.9897 16.6366 25.7766 16.0556 25.7766C14.8805 25.7731 13.6915 26.6579 13.6775 28.3469V31.6034C13.128 31.7523 12.5993 31.953 12.0986 32.2013C11.9326 32.1516 11.7639 32.1075 11.5944 32.0682V24.3242H20.4465V32.0682C20.2763 32.1082 20.1082 32.1516 19.9423 32.2013C19.4443 31.9544 18.9185 31.7551 18.3724 31.6061V28.3482C18.3724 27.4979 18.0879 26.8503 17.652 26.4207ZM14.4328 28.2482C14.4223 29.2158 14.4272 30.5627 14.4328 31.4316C14.241 31.4661 14.0513 31.5061 13.8651 31.5537V28.3482C13.8846 26.7517 14.9733 25.9676 16.0556 25.9614C17.1255 25.9676 18.1799 26.7303 18.1848 28.3482V31.5565C17.9979 31.5096 17.8082 31.4675 17.6171 31.4344C17.6199 30.3565 17.6241 28.6779 17.6241 28.2482C17.5502 25.9428 14.4572 25.9883 14.4328 28.2482ZM6.8723 24.3235H11.4068V32.024C10.8098 31.8972 10.1905 31.8296 9.5545 31.8296C8.61929 31.8296 7.71755 31.9751 6.8723 32.2413V24.3235ZM30.7763 21.7242C30.7763 25.6711 29.3648 29.5731 26.8033 32.7061L26.6638 32.8723C26.2307 32.6392 25.7746 32.4433 25.3004 32.2847C25.3185 32.2923 25.3373 32.2971 25.3562 32.3034V24.3242H25.8729V21.2815H24.1866V22.8021H22.8692V21.2815H21.1836V22.8021H20.6341V14.1588H21.9257V11.3789H20.4465V12.683H19.3425V12.3775C19.671 12.1403 19.8077 11.8389 19.7944 11.5403C19.7888 11.4389 19.7672 11.3479 19.7191 11.2775C19.6745 11.2051 19.5803 11.1548 19.4862 11.1561H19.4848C19.4827 11.1506 19.4785 11.143 19.4757 11.1368C19.4743 11.1348 19.4743 11.1341 19.4729 11.132C19.9785 11.1741 20.602 11.2589 21.2478 11.2589C21.7541 11.2589 22.2751 11.2051 22.766 11.0341C23.4948 11.2341 24.3066 11.3099 25.0884 11.3099C25.1797 11.3099 25.2704 11.3099 25.3617 11.3072C25.3129 11.3354 25.2543 11.3651 25.1972 11.3906C25.0556 11.4554 24.8443 11.512 24.8359 11.512L24.8415 11.6513C25.3548 11.672 26.426 11.3961 27.258 11.3961C27.5425 11.3961 27.8026 11.4258 28.0056 11.5023L28.0669 11.3789C27.4769 11.0272 25.8262 10.6686 24.9817 10.6658C24.9189 10.6658 24.8617 10.6672 24.8094 10.6713L24.8122 10.8099C24.9175 10.8148 25.0981 10.8479 25.2467 10.8906C25.2767 10.9003 25.3066 10.9085 25.3338 10.9189C25.255 10.9217 25.1776 10.923 25.0981 10.923C24.52 10.923 23.9635 10.8382 23.4662 10.6872C24.453 10.1789 24.9538 9.3403 24.9524 8.41894C24.9524 7.81274 24.718 7.26102 24.3205 6.86172C23.9258 6.46242 23.3686 6.21415 22.7298 6.21415C21.9605 6.21415 21.3615 6.46862 20.9584 6.86241C20.5553 7.25689 20.3467 7.7886 20.3467 8.33549C20.3467 8.71893 20.4151 9.05755 20.5385 9.35616C20.3712 9.28168 20.1466 9.17341 20.088 9.10789C20.0713 9.08858 20.0685 9.07686 20.0685 9.06582C20.0685 9.04651 20.0894 9.01962 20.1299 9.01893C20.1354 9.01893 20.141 9.01893 20.1466 9.0203L20.1856 8.88651C20.0852 8.84996 19.9283 8.82927 19.7763 8.79617C19.6382 8.7679 19.5078 8.72376 19.4583 8.68169C19.4638 8.66583 19.4848 8.62928 19.5154 8.60238C19.5991 8.52169 19.6724 8.54307 19.6724 8.54307L19.7282 8.41549C19.5977 8.35204 19.3711 8.30928 19.1681 8.26859C19.0677 8.2479 18.9736 8.22928 18.9052 8.21204C18.8717 8.20239 18.8445 8.19411 18.8278 8.18722C18.8264 8.18722 18.8264 8.18722 18.825 8.18515C18.825 8.11894 18.9289 7.96377 19.1953 7.96377C19.1974 7.96377 19.2016 7.92929 19.2051 7.89412C19.2093 7.85894 19.2121 7.82446 19.2121 7.82446C18.8717 7.7955 18.4903 7.70791 18.173 7.59895C18.0774 7.5624 17.9805 7.5224 17.8828 7.48033C17.6576 7.35413 17.576 7.22034 17.5774 7.11068C17.576 6.99965 17.6604 6.87827 17.8375 6.78172C18.0132 6.68655 18.272 6.62241 18.5851 6.62241C18.975 6.62241 19.4352 6.72793 19.8767 6.93827C19.8851 6.94172 19.9869 6.98034 19.9883 6.98103L20.0483 6.85414C19.9966 6.83 19.945 6.80517 19.8906 6.78103C19.4297 6.5238 19.2435 6.26932 19.2476 6.11001C19.249 6.0107 19.3076 5.9245 19.452 5.85139C19.5949 5.77967 19.8181 5.73484 20.104 5.73553C20.5629 5.73553 21.1871 5.84863 21.9277 6.12656H21.9291L21.9891 5.99208C21.9487 5.97622 21.9047 5.95967 21.8615 5.94312C21.6055 5.81277 21.5058 5.67209 21.5086 5.58243C21.5086 5.5114 21.5616 5.43209 21.7074 5.36451C21.8517 5.29968 22.0763 5.25554 22.3699 5.25554C22.9201 5.25554 23.7159 5.40726 24.7104 5.8245L24.7676 5.69829C20.8803 3.9135 17.4944 3.29695 15.1065 3.29695C13.9628 3.29695 13.0485 3.43833 12.4138 3.66316C11.7834 3.88798 11.4096 4.19763 11.4047 4.57348C11.4047 4.65969 11.4263 4.74521 11.4668 4.83072C11.7492 5.3845 12.584 5.62036 13.4941 6.82379C13.886 7.34033 14.036 7.70033 14.0702 7.96377C13.8316 8.26997 13.6943 8.43411 13.4927 8.52928C13.5046 8.48376 13.5115 8.43342 13.5115 8.38101C13.5115 8.35894 13.5101 8.33618 13.5087 8.31411L13.3846 8.30928L13.3714 8.30239C13.3714 8.30239 13.3714 8.30377 13.37 8.30445C13.3602 8.31963 13.28 8.37618 13.1726 8.41342C13.0568 8.45411 12.9083 8.48652 12.7653 8.48652C12.614 8.48652 12.4724 8.45204 12.3664 8.36859C12.4438 8.29411 12.5296 8.22928 12.6586 8.22928L12.6781 8.09273C12.3385 8.0017 12.0184 7.72033 11.7694 7.36033C11.8622 7.36861 11.9766 7.37137 12.0979 7.37275C12.167 7.37275 12.2381 7.37137 12.3078 7.36861L12.3197 7.23137C12.2555 7.22585 12.0812 7.04655 11.9054 6.82724C11.7639 6.65483 11.6076 6.45828 11.4479 6.29345C11.5665 6.29139 11.7025 6.28311 11.8266 6.28311C11.9068 6.28311 11.9821 6.28725 12.0393 6.29759L12.0756 6.1638C11.7478 6.0438 11.2889 5.77415 10.989 5.59623C11.1362 5.51002 11.3161 5.35485 11.3949 5.22175L11.2938 5.13003C11.2436 5.17072 11.0121 5.18934 10.7763 5.18658C10.6808 5.18658 10.5846 5.1852 10.4932 5.1852C10.4576 5.1852 10.4221 5.1852 10.39 5.1852C10.4276 5.01348 10.4918 4.72245 10.4932 4.51762L10.3558 4.49555C10.2714 4.75969 9.90599 5.01486 9.5817 5.19968C9.56566 5.00796 9.55729 4.87072 9.55729 4.72796C9.55729 4.67417 9.55868 4.61969 9.56008 4.56038L9.42408 4.53555C9.23021 5.09899 9.14861 5.27347 8.80549 5.50174C8.68554 5.15761 8.5356 4.80107 8.45819 4.4528C8.45679 4.44797 8.4554 4.44245 8.454 4.43831L8.31801 4.46659C8.31801 4.46659 8.31801 4.47211 8.31941 4.47418C8.34939 4.61969 8.36264 4.74934 8.36264 4.86589C8.36264 5.30864 8.17644 5.5845 8.04254 5.92243C7.93374 5.68174 7.77822 5.41278 7.66385 5.00934L7.52646 5.03623C7.53204 5.08106 7.53483 5.13072 7.53483 5.18175C7.53623 5.58864 7.36606 6.14104 7.36467 6.54793C7.36467 6.68103 7.38489 6.80172 7.44347 6.89965C7.3549 7.10103 7.30469 7.30378 7.30469 7.49757C7.30051 7.92032 7.27052 8.37825 6.10447 9.35064C6.00335 9.43409 5.94616 9.51892 5.94616 9.61133C5.94755 9.73615 6.04728 9.81546 6.15608 9.86305C6.26905 9.91132 6.40714 9.93684 6.54034 9.93684C6.67354 9.93546 6.80187 9.91339 6.89741 9.85133C7.18613 9.65822 7.4093 9.48237 7.82913 9.00306C7.5711 9.76581 7.50205 10.8244 6.93786 11.5361C6.77327 11.7534 6.6589 11.8182 6.63867 11.8099C6.6317 11.8099 6.62333 11.8099 6.60171 11.772C6.58288 11.7361 6.52709 11.5044 6.52151 11.4816V11.4789L6.38482 11.5161C6.3911 11.5499 6.40365 11.5961 6.41063 11.632C6.4448 11.8196 6.46572 12.063 6.46572 12.2596C6.46572 12.3789 6.45735 12.4816 6.4434 12.5402L6.57591 12.5837C6.67354 12.372 6.92879 12.0554 7.17637 11.7644C7.73638 11.1003 7.97071 10.4286 8.15273 9.84788C8.32498 9.29961 8.45819 8.83893 8.75807 8.52514C8.76435 8.54997 8.76714 8.5748 8.76714 8.59755C8.76714 8.61548 8.76574 8.63135 8.76225 8.64721C8.7239 8.82307 8.42541 9.32306 8.42541 9.93822C8.42541 10.0665 8.43796 10.2003 8.46935 10.3389C8.47283 10.3541 8.47562 10.3692 8.48678 10.3872C8.49515 10.4037 8.52374 10.4299 8.55931 10.4299C8.60743 10.4258 8.61929 10.4044 8.63463 10.3927C8.7218 10.3044 8.85919 10.0541 9.29646 10.043L9.32784 9.91132C9.23649 9.86512 9.10468 9.82512 8.99518 9.77891C8.94218 9.75684 8.89476 9.73271 8.86617 9.70926C8.83618 9.68719 8.83199 9.67133 8.83199 9.66857C8.83199 9.66857 8.83199 9.66581 8.83478 9.66029L8.83757 9.65478L8.83897 9.64995C8.86617 9.52995 9.03494 9.26237 9.19743 8.97134C9.35783 8.67755 9.51475 8.35342 9.51614 8.06446C9.51963 7.85826 9.42339 7.66722 9.20092 7.55895C9.47081 7.1493 9.75047 6.94103 9.90529 6.94793C9.97364 6.95 10.0225 6.97482 10.0699 7.05275C10.1166 7.1293 10.1508 7.26033 10.155 7.44654C10.1668 7.90653 10.2854 8.40514 10.5037 8.85341C10.7826 9.41685 11.7018 10.4148 12.9522 10.7175C12.6272 10.8237 12.5087 11.0023 12.4975 11.1589C12.4236 11.1713 12.3601 11.2154 12.3218 11.2768C12.2757 11.3472 12.2548 11.4382 12.2534 11.5396C12.2548 11.7947 12.3957 12.1216 12.6984 12.3589V12.6823H11.5937V11.3782H10.1152V14.1581H11.4068V22.8014H10.8565V21.2808H9.17093V22.8014H7.85424V21.2808H6.16863V24.3235H6.6847V32.3013C6.70353 32.2965 6.72376 32.2909 6.74259 32.284C6.26766 32.4413 5.81086 32.6392 5.37638 32.8709C5.33105 32.8164 5.28433 32.7613 5.239 32.7061C2.67606 29.5731 1.26522 25.6711 1.26522 21.7242V2.48593H30.7763V21.7242ZM8.31173 6.93827C8.30058 6.93827 8.29151 6.93827 8.28175 6.93965C7.94909 6.96655 7.83123 7.27689 7.80891 7.54585C7.80612 7.59136 7.79705 7.63757 7.7845 7.68516C7.74126 7.86101 7.63874 8.02515 7.52437 8.09549L7.57737 8.16653C7.72034 8.08446 7.81031 7.92584 7.8647 7.7424H7.90306C8.10879 7.74102 8.36753 7.73964 8.50491 7.54861C8.5621 7.46516 8.59348 7.35964 8.59348 7.25689C8.59348 7.17827 8.57465 7.09965 8.52863 7.03896C8.48329 6.97758 8.40728 6.93689 8.31173 6.93827Z" fill="#222222"/>
<path d="M20.634 11.5625V12.8666H19.1555V11.5625H18.9819C18.9756 11.7963 18.8459 12.0459 18.6785 12.3811L18.6011 12.5101L18.5265 12.3797C18.3521 12.0121 18.2356 11.7804 18.2238 11.5625H18.0313V12.8666H16.5723V11.5625H15.4684V12.8666H13.9899V11.5777L13.849 11.5735C13.8434 11.7722 13.7137 12.0384 13.5435 12.3811L13.4592 12.5101L13.3831 12.3797C13.2074 12.008 13.0902 11.7818 13.0812 11.5625H12.8859V12.8666H11.4074V11.5625H10.3027V13.9721H21.738V11.5625H20.634Z" fill="white"/>
<path d="M20.6271 9.54412C20.4869 9.48205 20.1173 9.33585 19.9855 9.19999C19.9472 9.16137 19.9269 9.1124 19.9283 9.06482C19.9283 9.02965 19.9381 8.99861 19.9541 8.97103C19.89 8.95861 19.8181 8.94551 19.7456 8.92965C19.588 8.89448 19.4325 8.85655 19.3369 8.75448C19.3195 8.7331 19.3153 8.70758 19.3153 8.68827C19.3195 8.61379 19.3613 8.55655 19.4185 8.5C19.4297 8.49035 19.4408 8.48 19.4527 8.47035C19.3795 8.45241 19.2965 8.43448 19.2156 8.41793C19.035 8.38207 18.8648 8.35173 18.772 8.31311C18.7462 8.29931 18.719 8.2938 18.6925 8.24207C18.6877 8.22345 18.6849 8.20345 18.6849 8.18345C18.6863 8.08897 18.7434 7.98691 18.8495 7.91518C18.6005 7.87105 18.1221 7.73657 18.1221 7.73657C17.5816 7.56898 17.1959 7.5014 16.9414 7.50209C16.7698 7.50209 16.6589 7.53174 16.5982 7.5745C16.5383 7.61519 16.516 7.66208 16.5146 7.73312C16.5111 7.9138 16.7161 8.21863 16.9888 8.45793C17.0488 8.50414 17.1101 8.54965 17.1743 8.59586L17.1673 8.60414L17.1701 8.6062L17.1143 8.67655L17.0913 8.70827H17.0899L17.0829 8.71586C17.0557 8.69655 17.0285 8.67448 17 8.65172C16.6575 8.40276 16.1373 8.24897 15.7614 8.25035C15.6177 8.24897 15.4957 8.27311 15.4183 8.31449C15.3408 8.35793 15.3081 8.40483 15.3053 8.48552C15.3053 8.56965 15.3555 8.70138 15.4936 8.8731L15.3813 8.9593C15.2355 8.77379 15.1665 8.62069 15.1658 8.48552C15.1644 8.35311 15.2418 8.24828 15.352 8.19242C15.4629 8.13449 15.6031 8.11104 15.7621 8.11104C15.9845 8.11104 16.2419 8.15932 16.4909 8.24345C16.1603 7.9738 15.8974 7.73932 15.6589 7.5614C15.3276 7.31519 15.0528 7.17657 14.6985 7.17657C14.5974 7.17657 14.49 7.18761 14.3715 7.21313L14.3429 7.07658C14.4684 7.05037 14.587 7.03796 14.6985 7.03796C15.0933 7.03658 15.4057 7.19795 15.7432 7.45105C15.9601 7.61243 16.1903 7.81381 16.4664 8.04277C16.4106 7.93656 16.3765 7.83243 16.3751 7.73381C16.3737 7.6276 16.4218 7.52346 16.5194 7.45933C16.6178 7.3945 16.7552 7.36347 16.9421 7.36278C17.0592 7.36278 17.198 7.37726 17.3584 7.40416C16.3249 6.94623 15.2432 6.4221 14.4182 6.42486C14.271 6.42486 14.1329 6.44073 14.0039 6.4759L13.9656 6.34142C14.1099 6.30349 14.2613 6.28487 14.4182 6.28487C15.3206 6.28762 16.4406 6.8483 17.4951 7.31381C17.4581 7.24761 17.4379 7.17933 17.4379 7.10968C17.4512 6.74141 17.9268 6.48486 18.5858 6.4821C18.6814 6.4821 18.7804 6.48693 18.8843 6.49935C17.4895 5.95039 16.0208 5.59039 14.8269 5.59108C14.2871 5.59108 13.8052 5.66419 13.4111 5.8228L13.3581 5.69453C13.7752 5.52626 14.2745 5.45247 14.8269 5.45247C16.1561 5.45247 17.7943 5.88487 19.3104 6.52348C19.1786 6.38349 19.1103 6.24487 19.1075 6.1097C19.1075 5.94556 19.2177 5.8097 19.3892 5.72557C19.5629 5.64074 19.8035 5.59522 20.1048 5.59522C20.2422 5.59522 20.3935 5.60626 20.5539 5.62626C18.5531 4.98075 16.6582 4.67593 15.1832 4.67662C14.0925 4.67593 13.2312 4.84489 12.7354 5.15178L12.6607 5.03454C13.1977 4.70351 14.0772 4.53869 15.1832 4.53662C16.8821 4.538 19.1159 4.93454 21.4382 5.78349C21.3943 5.71936 21.3699 5.65177 21.3685 5.58143C21.3685 5.43385 21.4807 5.31454 21.6495 5.23799C21.8211 5.16006 22.0624 5.11592 22.3706 5.11592C22.6405 5.11592 22.962 5.1504 23.3309 5.2304C20.042 3.90836 17.1855 3.43457 15.1072 3.43457C13.9753 3.43457 13.0743 3.57526 12.462 3.79318C11.8448 4.01111 11.54 4.3049 11.5449 4.57317C11.5449 4.63593 11.5602 4.70076 11.5944 4.76834C11.8106 5.23799 12.6768 5.51936 13.6064 6.74003C14.0214 7.28416 14.1811 7.67243 14.2138 7.97518V8.00691L14.1999 8.02553C13.8972 8.4131 13.7271 8.62207 13.3784 8.71793L13.1894 8.77103L13.3023 8.61103C13.3295 8.5731 13.3498 8.53103 13.3609 8.48069C13.3268 8.49931 13.2884 8.51655 13.2466 8.5331C13.1127 8.58414 12.9411 8.62345 12.7653 8.62345C12.5666 8.62483 12.3595 8.57241 12.2137 8.41586L12.1677 8.36759L12.2151 8.32C12.2674 8.26759 12.3351 8.19587 12.4292 8.1469C12.0875 7.98346 11.7918 7.66898 11.5672 7.30554L11.4745 7.1552L11.646 7.20209C11.7088 7.21933 11.8887 7.23244 12.0805 7.23312C11.9933 7.14968 11.902 7.03658 11.7974 6.91382C11.6146 6.69313 11.4131 6.43728 11.2227 6.269L11.0484 6.11452L11.2799 6.14901C11.3085 6.15314 11.3489 6.15521 11.397 6.15521C11.4814 6.15521 11.5847 6.1497 11.6907 6.14625C11.3643 5.98418 11.0156 5.77246 10.8071 5.6497L10.6585 5.56281L10.8259 5.52212C10.8684 5.51729 11.0198 5.41523 11.1355 5.31178C11.0288 5.32281 10.9061 5.32281 10.7771 5.32419C10.6815 5.32419 10.5846 5.32281 10.4939 5.32281C10.4256 5.32281 10.3614 5.32419 10.3042 5.32695L10.2129 5.33109L10.2324 5.24213C10.2526 5.1573 10.2924 4.98627 10.321 4.81799C10.1201 5.04834 9.80838 5.23178 9.55661 5.37316L9.46247 5.42488L9.4527 5.31799C9.43945 5.17247 9.42969 5.05661 9.42271 4.94972C9.28393 5.28833 9.13399 5.46833 8.80621 5.66764L8.7295 5.71384L8.7023 5.63039C8.63953 5.44281 8.56352 5.24902 8.49238 5.0504C8.44078 5.50626 8.21342 5.79522 8.11509 6.14004V6.14349L8.113 6.14763C8.11021 6.1559 8.10602 6.16901 8.10045 6.18832L8.09626 6.20556L8.08441 6.21797C7.86891 6.43866 7.69595 6.68348 7.58577 6.92485C7.49441 7.12209 7.44559 7.31864 7.44559 7.49726C7.44908 7.94415 7.37724 8.48552 6.19515 9.45722C6.10798 9.52826 6.08566 9.58205 6.08706 9.6117C6.08427 9.64688 6.12262 9.69584 6.21398 9.73584C6.30116 9.77515 6.42529 9.79791 6.54106 9.79791C6.65683 9.79791 6.76423 9.77377 6.81863 9.73584C7.16175 9.5055 7.39747 9.31585 8.02931 8.55034C8.07464 8.49655 8.12067 8.43862 8.17019 8.37862C8.28177 8.23794 8.4066 8.17311 8.52656 8.17311C8.67231 8.17311 8.78529 8.26621 8.84806 8.37793C8.88641 8.44483 8.90803 8.52069 8.90803 8.59724C8.90803 8.62483 8.90524 8.65172 8.89966 8.67724C8.84387 8.90068 8.56631 9.36067 8.56631 9.93791C8.56631 10.0324 8.57468 10.1303 8.59072 10.231C8.61931 10.1979 8.65627 10.1586 8.7023 10.1179C8.77901 10.0503 8.88641 9.98204 9.02799 9.94204C8.99939 9.93032 8.9694 9.91929 8.94081 9.90687C8.82923 9.85446 8.70509 9.80687 8.69323 9.66895C8.69323 9.64826 8.69672 9.62826 8.70509 9.60964C8.75182 9.44205 8.9178 9.19171 9.07401 8.90551C9.23372 8.61793 9.37808 8.30207 9.37669 8.06415C9.3725 7.87725 9.33554 7.76139 9.01683 7.61312L9.08378 7.49174C9.41783 6.97934 9.64518 6.8152 9.90671 6.80899C10.0239 6.80762 10.1285 6.87244 10.1926 6.98141C10.2568 7.09037 10.291 7.24347 10.2959 7.44347C10.3084 7.88208 10.4214 8.36345 10.6313 8.7931C10.9089 9.36412 11.9633 10.4793 13.3254 10.6462V10.7834C12.7193 10.8634 12.6405 11.0689 12.6377 11.1875C12.6377 11.1979 12.6391 11.2069 12.6405 11.2144L12.651 11.2875L12.5422 11.2944C12.4961 11.2958 12.469 11.3186 12.4418 11.3579C12.4146 11.3986 12.395 11.4234 12.3964 11.5055C12.395 11.6986 12.4892 11.9661 12.7165 12.1717L12.7137 11.3979H13.2354C13.2368 11.4724 13.2354 11.4724 13.2354 11.4744C13.234 11.6255 13.3198 11.8751 13.4627 12.1875C13.5966 11.9048 13.6957 11.6241 13.6943 11.4627V11.3924H14.1629L14.1643 12.2061C14.3917 12.0013 14.4789 11.7317 14.4782 11.5393C14.4782 11.4165 14.4503 11.3331 14.4042 11.3089L14.3673 11.2875L14.3687 11.2455C14.3687 11.2455 14.3701 11.2393 14.3701 11.2365C14.3715 11.1731 14.3115 11.0662 14.3087 10.9669C14.3024 10.9 14.3484 10.802 14.4468 10.7889C14.4886 10.7807 14.5388 10.7751 14.573 10.7751C14.5946 10.7751 14.6169 10.7772 14.6441 10.7807C15.3143 10.8579 16.7935 10.8138 17.9407 10.9103H17.9561V11.0503H17.9547C17.9463 11.0503 17.9435 11.0489 17.9393 11.0489C17.9059 11.0489 17.855 11.0703 17.8159 11.1075C17.7762 11.1448 17.7531 11.1931 17.7545 11.2255V11.2944L17.6848 11.3006C17.6388 11.302 17.6102 11.3255 17.583 11.3655C17.5558 11.4048 17.5446 11.4717 17.5446 11.5524C17.5446 11.7455 17.6165 11.9579 17.8445 12.1641V11.3986H18.3864C18.3864 11.3986 18.378 11.4641 18.378 11.4758C18.3766 11.6255 18.4624 11.8751 18.604 12.1875C18.7393 11.9048 18.8348 11.6289 18.8306 11.4896C18.8292 11.4744 18.8292 11.4006 18.8278 11.4006L19.3383 11.4075L19.3411 12.171C19.5685 11.9661 19.634 11.7317 19.634 11.5393C19.634 11.4572 19.6166 11.391 19.5894 11.3517C19.5608 11.3117 19.5336 11.2958 19.4869 11.2944C19.4722 11.2944 19.4611 11.2944 19.4513 11.2944L19.4095 11.2979L19.3864 11.262C19.3864 11.2544 19.3167 11.1662 19.3097 11.0751C19.3097 11.0606 19.3111 11.04 19.3279 11.0179C19.3453 10.9958 19.3767 10.9848 19.3969 10.9855C19.4011 10.9855 19.4067 10.9855 19.4095 10.9855C19.9353 11.0248 20.5832 11.1186 21.2478 11.1186C21.6774 11.1186 22.114 11.0786 22.5275 10.9606C21.699 10.6944 20.9988 10.2489 20.6271 9.54343M8.50563 7.54691C8.36825 7.73794 8.10951 7.73932 7.90378 7.7407H7.86542C7.81103 7.92415 7.72106 8.08277 7.57809 8.16483L7.52509 8.0938C7.63947 8.02346 7.74059 7.85932 7.78522 7.68415C7.79708 7.63588 7.80684 7.58967 7.80963 7.54415C7.83125 7.27519 7.94981 6.96485 8.28247 6.93796C8.29153 6.93658 8.3013 6.93658 8.31245 6.93658C8.4073 6.9352 8.48401 6.97589 8.52865 7.03796C8.57537 7.09864 8.5942 7.17657 8.5942 7.25588C8.5942 7.35795 8.56282 7.46347 8.50563 7.54691Z" fill="#009640"/>
<path d="M9.14 25.7803C8.59603 25.7803 8.15527 26.2154 8.15527 26.7527V28.5788H10.1233V26.7527C10.1233 26.2154 9.68327 25.7803 9.14 25.7803ZM22.9018 25.7803C22.3585 25.7803 21.9177 26.2154 21.9177 26.7527V28.5788H23.8851V26.7527C23.8851 26.2154 23.4436 25.7803 22.9018 25.7803Z" fill="#222222"/>
<path d="M25.6888 24.1405H6.35205V21.4619H7.67083V22.9826H9.35645V21.4619H10.6731V22.9826H12.3587V21.4619H13.6754V22.9826H15.3617V21.4619H16.6791V22.9826H18.3647V21.4619H19.6821V22.9826H21.3677V21.4619H22.6851V22.9826H24.3714V21.4619H25.6888V24.1405Z" fill="white"/>
<path d="M16.003 39.8576C11.403 38.9824 7.46617 36.6818 4.62009 33.1998C1.94277 29.9281 0.467773 25.8523 0.467773 21.7241V1.69824H31.5731V21.7234C31.5731 25.8516 30.0982 29.9274 27.4215 33.1998C24.5748 36.6818 20.6379 38.9824 16.0386 39.8576L16.0205 39.8617L16.003 39.8576ZM0.656071 21.7241C0.655374 25.8096 2.11503 29.8433 4.76584 33.0846C7.58124 36.5259 11.4692 38.8024 16.0205 39.6741C20.5731 38.8024 24.4618 36.5266 27.2758 33.0846C29.9266 29.844 31.3849 25.8096 31.3849 21.7241V1.88307H0.656071V21.7241Z" fill="#222222"/>
<path d="M88.0117 18.0489C88.0458 18.0372 88.103 18.0034 88.1372 18.0034C88.2516 18.0034 88.2174 18.2744 88.2174 18.32V18.9979C88.2174 19.3703 88.2055 19.5627 87.9315 19.8448C87.6567 20.1165 87.2689 20.2972 86.8693 20.2972C86.4474 20.2972 86.0806 20.071 86.0806 19.6303C86.0806 19.0882 86.5269 18.7944 86.9718 18.5682L88.0117 18.0489ZM86.9146 18.3427C86.2863 18.6475 85.2242 19.122 85.2242 19.9241C85.2242 20.4889 85.7605 20.8165 86.2981 20.8165C87.2919 20.8165 88.034 19.9579 88.1372 19.9579C88.2976 19.9579 88.3541 20.7489 88.9141 20.7489C89.2112 20.7489 89.4971 20.5792 89.7259 20.4213C89.8047 20.3537 89.9999 20.1951 89.9999 20.071C89.9999 20.0261 89.9658 19.9806 89.9197 19.9806C89.8179 19.9806 89.691 20.2634 89.4065 20.2634C88.9943 20.2634 89.0061 19.6075 89.0061 19.3592V16.6931C89.0061 16.3876 89.0515 16.0938 88.7781 15.8683C88.5152 15.631 88.0926 15.5745 87.7383 15.5745C87.0067 15.5745 86.2298 15.8793 85.6928 16.3538C85.4752 16.5345 85.213 16.8621 85.213 17.1558C85.213 17.2689 85.2702 17.2917 85.3615 17.2917C85.4989 17.2917 85.7388 17.2014 85.8532 17.1448C86.0366 17.0655 86.0938 16.9076 86.1726 16.7379C86.4355 16.1621 86.7905 15.789 87.4879 15.789C88.1958 15.789 88.2188 16.2524 88.2188 16.8055V17.3027C88.2188 17.7324 88.2069 17.7434 87.7962 17.9358L86.916 18.3427H86.9146ZM79.4999 19.5289C79.4999 20.0144 79.6017 20.3985 78.9859 20.4551C78.8597 20.4668 78.6658 20.4441 78.6658 20.6137C78.6658 20.7041 78.746 20.7261 78.8255 20.7261C79.1798 20.7261 79.5445 20.6813 79.9114 20.6813C80.2538 20.6813 80.6192 20.7261 80.9854 20.7261C81.0649 20.7261 81.1221 20.6923 81.1221 20.602C81.1221 20.4551 80.9156 20.4668 80.8026 20.4551C80.1847 20.3985 80.288 20.0144 80.288 19.5289V17.6303C80.288 17.1786 80.3221 16.9303 80.6534 16.591C80.9512 16.2862 81.3501 16.1055 81.7839 16.1055C82.2302 16.1055 82.6417 16.2862 82.8579 16.6138C83.0636 16.9186 83.0636 17.371 83.0636 17.7324V19.5289C83.0636 20.0144 83.1668 20.3985 82.5503 20.4551C82.4241 20.4668 82.2302 20.4441 82.2302 20.6137C82.2302 20.7041 82.3097 20.7261 82.3899 20.7261C82.7442 20.7261 83.1096 20.6813 83.4758 20.6813C83.8182 20.6813 84.1843 20.7261 84.5491 20.7261C84.6293 20.7261 84.6865 20.6923 84.6865 20.602C84.6865 20.4551 84.4807 20.4668 84.3664 20.4551C83.7492 20.3985 83.8531 20.0144 83.8531 19.5289V17.7434C83.8531 17.2014 83.8754 16.6476 83.51 16.1841C83.1905 15.7779 82.733 15.5745 82.1612 15.5745C81.1221 15.5745 80.4825 16.5007 80.2873 16.5007V15.7552C80.2873 15.6759 80.2991 15.5745 80.1847 15.5745C80.0934 15.5745 80.0362 15.6648 79.979 15.7214C79.7963 15.9359 79.3046 16.2296 79.0313 16.309C78.9287 16.3427 78.7683 16.3655 78.7683 16.5007C78.7683 16.5683 78.8374 16.591 78.905 16.591H79.0536C79.1456 16.591 79.3165 16.6027 79.3855 16.6814C79.5111 16.8055 79.4999 17.2462 79.4999 17.4048V19.5289ZM76.2437 18.0489C76.2779 18.0372 76.3351 18.0034 76.3693 18.0034C76.4837 18.0034 76.4495 18.2744 76.4495 18.32V18.9979C76.4495 19.3703 76.4376 19.5627 76.1635 19.8448C75.8888 20.1165 75.501 20.2972 75.1007 20.2972C74.6781 20.2972 74.312 20.071 74.312 19.6303C74.312 19.0882 74.7583 18.7944 75.2032 18.5682L76.2437 18.0489ZM75.1467 18.3427C74.5184 18.6475 73.4556 19.122 73.4556 19.9241C73.4556 20.4889 73.9918 20.8165 74.5295 20.8165C75.524 20.8165 76.2661 19.9579 76.3693 19.9579C76.529 19.9579 76.5855 20.7489 77.1462 20.7489C77.4433 20.7489 77.7292 20.5792 77.9573 20.4213C78.0368 20.3537 78.2313 20.1951 78.2313 20.071C78.2313 20.0261 78.1972 19.9806 78.1518 19.9806C78.0493 19.9806 77.9231 20.2634 77.6385 20.2634C77.2271 20.2634 77.2382 19.6075 77.2382 19.3592V16.6931C77.2382 16.3876 77.2836 16.0938 77.0095 15.8683C76.7473 15.631 76.3246 15.5745 75.9704 15.5745C75.2388 15.5745 74.4619 15.8793 73.9249 16.3538C73.7073 16.5345 73.4451 16.8621 73.4451 17.1558C73.4451 17.2689 73.5023 17.2917 73.5936 17.2917C73.731 17.2917 73.9709 17.2014 74.0846 17.1448C74.2687 17.0655 74.3259 16.9076 74.4047 16.7379C74.6676 16.1621 75.0226 15.789 75.7193 15.789C76.4279 15.789 76.4509 16.2524 76.4509 16.8055V17.3027C76.4509 17.7324 76.439 17.7434 76.0283 17.9358L75.1481 18.3427H75.1467ZM71.6507 14.5911C71.9819 14.5911 72.187 14.3428 72.187 14.0262C72.187 13.7324 72.0043 13.4842 71.696 13.4842C71.3759 13.4842 71.2043 13.7552 71.2043 14.049C71.2043 14.309 71.3529 14.5911 71.6507 14.5911ZM72.0852 15.7552C72.0852 15.6759 72.0963 15.5745 71.9819 15.5745C71.8906 15.5745 71.8334 15.6648 71.7762 15.7214C71.5935 15.9359 71.1025 16.2296 70.8284 16.309C70.7259 16.3427 70.5655 16.3655 70.5655 16.5007C70.5655 16.5683 70.6346 16.591 70.7022 16.591H70.8508C70.9421 16.591 71.1137 16.6027 71.182 16.6814C71.309 16.8055 71.2964 17.2462 71.2964 17.4048V21.5627C71.2964 22.3757 71.0565 22.7151 70.4288 23.2123C70.3717 23.2564 70.3145 23.313 70.3145 23.393C70.3145 23.4495 70.3493 23.4716 70.394 23.4716C70.4972 23.4716 70.6116 23.3702 70.6918 23.3137C71.0335 23.0882 71.5252 22.6813 71.7539 22.3309C72.0621 21.8902 72.0859 21.393 72.0859 20.873L72.0852 15.7552ZM69.3193 12.9421C69.3193 12.8511 69.3318 12.7607 69.2175 12.7607C69.1373 12.7607 69.0347 12.8401 68.9776 12.8856C68.7021 13.0663 68.2683 13.1794 67.9482 13.2359C67.8798 13.2469 67.7892 13.2807 67.7892 13.36C67.7892 13.5069 67.9824 13.4731 68.0863 13.4731C68.6344 13.4731 68.5319 13.9697 68.5319 14.3883V19.5289C68.5319 20.0144 68.6344 20.3985 68.0179 20.4551C67.8917 20.4668 67.6985 20.4441 67.6985 20.6137C67.6985 20.7041 67.7773 20.7261 67.8575 20.7261C68.2118 20.7261 68.5772 20.6813 68.9434 20.6813C69.2858 20.6813 69.6519 20.7261 70.0167 20.7261C70.0969 20.7261 70.1541 20.6923 70.1541 20.602C70.1541 20.4551 69.9483 20.4668 69.834 20.4551C69.2175 20.3985 69.32 20.0144 69.32 19.5289L69.3193 12.9421ZM62.8188 17.0317C62.8188 16.7379 62.7735 16.58 63.0246 16.3765C63.3677 16.0938 63.881 15.9469 64.3273 15.9469C65.5722 15.9469 66.3491 17.0317 66.3491 18.1841C66.3491 19.4724 65.5603 20.6247 64.1669 20.6247C63.7778 20.6247 63.3677 20.5572 63.0699 20.2744C62.7958 20.0144 62.8188 19.7206 62.8188 19.3703V17.0317ZM62.8188 12.9421C62.8188 12.8511 62.8307 12.7607 62.7163 12.7607C62.6361 12.7607 62.5336 12.8401 62.4764 12.8856C62.2016 13.0663 61.7678 13.1794 61.447 13.2359C61.3787 13.2469 61.288 13.2807 61.288 13.36C61.288 13.5069 61.4826 13.4731 61.5851 13.4731C62.1333 13.4731 62.0315 13.9697 62.0315 14.3883V19.653C62.0315 19.9917 62.0426 20.1613 61.9743 20.4889C61.9624 20.5572 61.9171 20.7151 61.9171 20.7827C61.9171 20.862 61.9513 20.9185 62.0315 20.9185C62.1682 20.9185 62.2484 20.6923 62.2944 20.602C62.339 20.5006 62.4088 20.3199 62.5447 20.3199C62.7393 20.3199 63.2415 20.8165 64.1676 20.8165C65.8009 20.8165 67.218 19.6986 67.218 18.0372C67.218 16.6365 66.144 15.4952 64.6927 15.5745C64.1104 15.6083 63.5741 15.8345 63.0587 16.0828C63.0127 16.1055 62.9555 16.1621 62.9102 16.1621C62.8411 16.1621 62.8188 16.0717 62.8188 16.0262V12.9421ZM60.0543 16.0034C60.0543 15.8793 60.1115 15.7214 59.9281 15.7214H58.603C58.511 15.7214 58.4433 15.6986 58.4433 15.8C58.4433 15.9469 58.6602 15.9469 58.7628 15.9469C59.38 15.9469 59.2656 16.3765 59.2656 16.851V19.0089C59.2656 19.3255 59.3116 19.5855 59.0724 19.8448C58.7523 20.1951 58.3408 20.3537 57.8499 20.3537C57.4272 20.3537 56.9356 20.2068 56.7068 19.8337C56.5011 19.5061 56.5011 18.9413 56.5011 18.5682V16.1283C56.5011 15.9586 56.5583 15.7214 56.3184 15.7214H55.0386C54.9473 15.7214 54.8901 15.6986 54.8901 15.789C54.8901 15.9469 55.0958 15.9469 55.1977 15.9469C55.826 15.9469 55.7116 16.3765 55.7116 16.851V18.5682C55.7116 19.122 55.6886 19.6986 56.0548 20.1613C56.386 20.591 56.8428 20.8165 57.4028 20.8165C58.4426 20.8165 58.9803 20.0261 59.1505 20.0261C59.2998 20.0261 59.2433 20.4323 59.2433 20.4889V20.7599C59.2433 20.8165 59.2433 20.8509 59.2998 20.8509C59.3346 20.8509 59.4023 20.7944 59.426 20.7827C59.7572 20.5344 60.168 20.4103 60.5683 20.2972C60.6374 20.2744 60.8082 20.2516 60.8082 20.1503C60.8082 20.071 60.7287 20.0599 60.6597 20.0599L60.5111 20.071C59.963 20.1165 60.055 19.7661 60.055 19.3255L60.0543 16.0034ZM53.4841 14.5911C53.8161 14.5911 54.0218 14.3428 54.0218 14.0262C54.0218 13.7324 53.8391 13.4842 53.5302 13.4842C53.2108 13.4842 53.0392 13.7552 53.0392 14.049C53.0392 14.309 53.1871 14.5911 53.4841 14.5911ZM53.9186 15.7552C53.9186 15.6759 53.9312 15.5745 53.8168 15.5745C53.7254 15.5745 53.6683 15.6648 53.6111 15.7214C53.4277 15.9359 52.9367 16.2296 52.6626 16.309C52.5608 16.3427 52.3997 16.3655 52.3997 16.5007C52.3997 16.5683 52.4687 16.591 52.5371 16.591H52.6856C52.777 16.591 52.9485 16.6027 53.0169 16.6814C53.1431 16.8055 53.1313 17.2462 53.1313 17.4048V21.5627C53.1313 22.3757 52.8914 22.7151 52.263 23.2123C52.2058 23.2564 52.1486 23.313 52.1486 23.393C52.1486 23.4495 52.1835 23.4716 52.2288 23.4716C52.3313 23.4716 52.4457 23.3702 52.5259 23.3137C52.8683 23.0882 53.36 22.6813 53.5881 22.3309C53.897 21.8902 53.9193 21.393 53.9193 20.873L53.9186 15.7552ZM48.9838 14.8738C48.9838 14.1621 48.9266 13.9476 49.7259 13.9476C49.8284 13.9476 50.023 13.9476 50.023 13.8007C50.023 13.6759 49.9316 13.6421 49.8291 13.6421C49.3953 13.6421 48.9608 13.6876 48.527 13.6876C48.0933 13.6876 47.6811 13.6421 47.2473 13.6421C47.1329 13.6421 47.0527 13.6759 47.0527 13.8007C47.0527 13.9476 47.2355 13.9476 47.3387 13.9476C48.1386 13.9476 48.0814 14.1621 48.0814 14.8738V19.4951C48.0814 20.2068 48.1386 20.4213 47.3498 20.4213C47.2354 20.4213 47.0527 20.4213 47.0527 20.5682C47.0527 20.6813 47.1441 20.7261 47.2473 20.7261C47.6358 20.7261 48.0012 20.6813 48.3896 20.6813C49.4867 20.6813 50.606 20.7261 51.703 20.7261C52.0112 20.7261 51.9889 20.591 52.0001 20.2972C52.0119 19.9013 52.1263 19.5061 52.1263 19.122C52.1263 19.0427 52.1263 18.9641 52.0238 18.9641C51.9554 18.9641 51.9094 19.0544 51.8864 19.111C51.7609 19.4158 51.5551 19.8337 51.2922 20.0482C50.9728 20.3082 50.447 20.4213 50.0355 20.4213C49.0068 20.4213 48.9845 20.0144 48.9845 19.1558L48.9838 14.8738Z" fill="#222222"/>
<path d="M76.873 4.05019C76.873 3.64399 76.85 3.64399 77.2719 3.64399H78.0718C78.2203 3.64399 78.3801 3.68881 78.3801 3.49709C78.3801 3.36123 78.3801 3.29365 78.2204 3.29365H77.3179C76.8388 3.29365 76.8723 3.27089 76.8723 2.78469V2.21987C76.8723 1.66678 76.9741 0.660588 77.7405 0.660588C78.0718 0.660588 78.3006 0.920584 78.5063 1.14679C78.5746 1.2261 78.7225 1.39506 78.8375 1.39506C78.9861 1.39506 79.157 0.864033 79.157 0.751621C79.157 0.435075 78.3689 0.333008 78.1632 0.333008C77.5808 0.333008 76.9406 0.683347 76.5522 1.09024C76.1756 1.49713 76.1058 2.07298 76.0612 2.604C76.0382 2.95434 76.0842 3.27089 75.6839 3.37227C75.5926 3.39502 75.4091 3.42882 75.4091 3.55364C75.4091 3.70054 75.6602 3.64399 75.7516 3.64399C76.1058 3.64399 76.0842 3.71157 76.0842 4.05019V7.10117C76.0842 7.58668 76.1756 7.97081 75.5577 8.02736C75.444 8.03908 75.2501 8.01632 75.2501 8.18529C75.2501 8.27632 75.3185 8.29839 75.3987 8.29839C75.7411 8.29839 76.1065 8.25356 76.4497 8.25356C76.8151 8.25356 77.1805 8.29839 77.569 8.29839C77.6485 8.29839 77.7057 8.27632 77.7057 8.17425C77.7057 8.02736 77.4999 8.03908 77.3856 8.02736C76.7684 7.97081 76.8723 7.58668 76.8723 7.10117L76.873 4.05019ZM71.9717 8.17425C70.6801 8.17425 69.9604 6.78462 69.9604 5.66602C69.9604 4.51363 70.6689 3.36123 71.9249 3.36123C73.2507 3.36123 73.9021 4.66052 73.9021 5.80188C73.9021 6.87496 73.2047 8.17425 71.9717 8.17425ZM71.9375 8.38873C73.4683 8.38873 74.7703 7.27082 74.7703 5.72257C74.7703 4.99982 74.4384 4.26535 73.8797 3.80191C73.3309 3.33847 72.6453 3.14675 71.9375 3.14675C71.1717 3.14675 70.429 3.37227 69.8809 3.90329C69.3892 4.36673 69.104 5.04465 69.104 5.72257C69.104 7.27082 70.3948 8.38873 71.9375 8.38873ZM63.0938 7.34944L61.8134 4.3219C61.7576 4.18604 61.6774 4.00536 61.6774 3.85846C61.6774 3.57571 62.0658 3.51916 62.2597 3.51916C62.3622 3.51916 62.5345 3.50813 62.5345 3.44054C62.5345 3.33847 62.455 3.29365 62.3741 3.29365H60.1689C60.0775 3.29365 59.952 3.32744 59.952 3.44054C59.952 3.51916 60.1354 3.51916 60.2268 3.51916C60.6724 3.51916 60.7979 3.97157 60.9465 4.3219L62.455 7.84667C62.5114 7.99357 62.614 8.17425 62.614 8.33218C62.614 8.45701 62.5568 8.55838 62.5114 8.67148L62.123 9.56388C62.054 9.7225 62.0086 9.92526 61.814 9.97077C61.655 10.0046 61.4605 9.99353 61.3119 9.99353C61.0037 9.99353 60.9465 10.1632 60.9465 10.4342C60.9465 10.8066 61.3008 10.7956 61.5867 10.7956C62.0205 10.7956 62.0323 10.7163 62.1467 10.3439L64.4432 4.9881C64.5799 4.67155 64.854 4.05019 65.0716 3.77916C65.1971 3.62123 65.4482 3.53088 65.5619 3.51916C65.6539 3.50813 65.8129 3.50813 65.8129 3.45157C65.8129 3.33847 65.7334 3.29365 65.6421 3.29365H63.826C63.7458 3.29365 63.6656 3.3502 63.6656 3.44054C63.6656 3.51916 63.8372 3.51916 63.9286 3.51916C64.1803 3.51916 64.5346 3.58743 64.5346 3.92605C64.5346 4.06191 64.4321 4.27639 64.3749 4.40052L63.0952 7.34944H63.0938ZM58.3982 3.77916C58.3982 3.46261 58.5572 3.53088 58.8201 3.53088H59.461C59.7232 3.53088 59.8146 3.58743 59.8146 3.3502C59.8146 3.25985 59.8146 3.19158 59.7121 3.19158H58.5809C58.4219 3.18055 58.3982 3.11296 58.3982 2.96607V2.16332C58.3982 2.09574 58.387 2.02815 58.3068 2.02815C58.2496 2.02815 58.2155 2.0847 58.1925 2.12953C57.9295 2.67228 57.5983 2.95434 57.1073 3.27089C57.0501 3.31572 56.9699 3.36123 56.9699 3.44054C56.9699 3.57571 57.267 3.53088 57.3242 3.53088C57.5411 3.53088 57.6101 3.49709 57.6101 3.73433V6.63773C57.6101 7.08944 57.5641 7.66599 57.8605 8.03908C58.0544 8.27632 58.3745 8.38873 58.6841 8.38873C59.0837 8.38873 59.461 8.21977 59.7463 7.95977C59.8265 7.90322 59.975 7.75633 59.975 7.64323C59.975 7.60943 59.9408 7.56392 59.8948 7.56392C59.8034 7.56392 59.4959 7.95977 59.0726 7.95977C58.3877 7.95977 58.3982 7.12393 58.3982 6.63773V3.77916ZM55.4161 2.16332C55.7481 2.16332 55.9196 1.90402 55.9196 1.5985C55.9196 1.32747 55.7362 1.05644 55.4398 1.05644C55.1323 1.05644 54.9258 1.32747 54.9258 1.62126C54.9258 1.91505 55.1086 2.16332 55.4161 2.16332ZM55.8171 3.32744C55.8171 3.24813 55.8283 3.14675 55.7146 3.14675C55.6225 3.14675 55.5654 3.2371 55.5082 3.29365C55.3255 3.50813 54.8345 3.80191 54.5604 3.88122C54.4579 3.91502 54.2982 3.93777 54.2982 4.07294C54.2982 4.14053 54.3665 4.16329 54.4349 4.16329H54.5834C54.6748 4.16329 54.8463 4.17501 54.9147 4.25363C55.0409 4.37777 55.0291 4.81845 55.0291 4.97707V7.10117C55.0291 7.58668 55.1323 7.97081 54.5151 8.02736C54.3895 8.03908 54.195 8.01632 54.195 8.18529C54.195 8.27632 54.2752 8.29839 54.3554 8.29839C54.709 8.29839 55.0751 8.25356 55.4405 8.25356C55.7829 8.25356 56.1491 8.29839 56.5145 8.29839C56.5947 8.29839 56.6512 8.2646 56.6512 8.17425C56.6512 8.02736 56.4462 8.03908 56.3318 8.02736C55.7146 7.97081 55.8178 7.58668 55.8178 7.10117L55.8171 3.32744ZM53.2918 1.91505C53.2577 1.5985 53.3037 1.45161 52.9717 1.33851C52.4808 1.16955 51.6815 1.03369 51.1669 1.03369C49.0761 1.03369 47.2021 2.59297 47.2021 4.68328C47.2021 6.68324 48.8585 8.38873 50.9381 8.38873C51.692 8.38873 52.3322 8.2308 53.0059 7.91426C53.3609 7.74529 53.349 7.72254 53.372 7.3722L53.4292 6.45704C53.4404 6.37773 53.3944 6.31015 53.303 6.31015C52.9947 6.31015 52.8567 8.08391 51.086 8.08391C50.1605 8.08391 49.452 7.5984 48.9268 6.886C48.447 6.23084 48.2183 5.4743 48.2183 4.67155C48.2183 2.9771 49.1667 1.35023 51.086 1.35023C52.8567 1.35023 52.9487 2.79641 53.2458 2.79641C53.3379 2.79641 53.372 2.73986 53.372 2.64952L53.2918 1.91505Z" fill="#222222"/>
</g>
<defs>
<clipPath id="clip0_514_4308">
<rect width="90" height="40" fill="white" transform="translate(0 0.333008)"/>
</clipPath>
</defs>
</svg>
